<svg width="546" height="550" viewBox="0 0 546 550" fill="none" xmlns="http://www.w3.org/2000/svg">
<path d="M279.554 244.703L234.772 257.621L218.553 197.051C217.069 191.44 217.168 185.528 218.84 179.971L235.49 124.999C237.463 118.504 241.232 112.7 246.362 108.256C251.492 103.812 257.774 100.908 264.483 99.8807L289.17 96.1489L305.676 95.8618L324.622 104.474C328.965 106.432 332.691 109.54 335.397 113.46C338.103 117.381 339.688 121.966 339.98 126.721L343.569 173.081L386.197 167.771L388.063 209.395L327.637 204.658L327.924 207.385C329.359 218.437 331.368 228.484 333.665 234.656L279.554 244.703Z" fill="white"/>
<path d="M327.207 506.072C327.207 517.263 331.653 527.997 339.567 535.91C347.48 543.824 358.213 548.27 369.405 548.27C380.597 548.27 391.33 543.824 399.244 535.91C407.157 527.997 411.603 517.263 411.603 506.072H327.207Z" fill="#DEDEDE"/>
<path d="M369.404 524.731C364.455 524.731 359.709 522.765 356.21 519.266C352.711 515.766 350.745 511.02 350.745 506.072C350.732 505.88 350.761 505.688 350.829 505.508C350.896 505.328 351.001 505.165 351.137 505.029C351.273 504.893 351.437 504.788 351.616 504.72C351.796 504.652 351.989 504.624 352.18 504.636H386.771C386.963 504.624 387.155 504.652 387.335 504.72C387.515 504.788 387.678 504.893 387.814 505.029C387.95 505.165 388.056 505.328 388.123 505.508C388.191 505.688 388.219 505.88 388.207 506.072C388.161 511.031 386.161 515.773 382.641 519.266C379.12 522.76 374.364 524.723 369.404 524.731ZM353.759 507.507C353.759 511.694 355.423 515.71 358.384 518.671C361.344 521.632 365.36 523.295 369.548 523.295C373.735 523.295 377.751 521.632 380.712 518.671C383.673 515.71 385.336 511.694 385.336 507.507H353.759Z" fill="#243244"/>
<path d="M163.582 506.072C163.582 517.263 168.028 527.997 175.942 535.91C183.855 543.824 194.588 548.27 205.78 548.27C216.972 548.27 227.705 543.824 235.619 535.91C243.532 527.997 247.978 517.263 247.978 506.072H163.582Z" fill="#DEDEDE"/>
<path d="M411.747 506.072C411.747 494.881 407.301 484.147 399.387 476.234C391.473 468.32 380.74 463.874 369.549 463.874C358.357 463.874 347.624 468.32 339.71 476.234C331.796 484.147 327.351 494.881 327.351 506.072H411.747Z" fill="white"/>
<path d="M411.746 507.508H327.207C327.015 507.521 326.823 507.492 326.643 507.425C326.463 507.357 326.3 507.252 326.164 507.116C326.028 506.98 325.922 506.817 325.855 506.637C325.787 506.457 325.759 506.265 325.771 506.073C325.771 500.343 326.9 494.669 329.093 489.375C331.286 484.081 334.5 479.271 338.551 475.219C342.603 471.168 347.413 467.954 352.707 465.761C358.001 463.568 363.675 462.439 369.405 462.439C375.135 462.439 380.809 463.568 386.103 465.761C391.396 467.954 396.206 471.168 400.258 475.219C404.31 479.271 407.524 484.081 409.717 489.375C411.91 494.669 413.038 500.343 413.038 506.073C413.054 506.253 413.032 506.435 412.975 506.607C412.917 506.778 412.825 506.937 412.704 507.071C412.583 507.206 412.435 507.314 412.271 507.389C412.106 507.464 411.927 507.505 411.746 507.508ZM328.642 504.637H410.167C409.772 494.091 405.304 484.109 397.703 476.788C390.101 469.466 379.958 465.376 369.405 465.376C358.851 465.376 348.708 469.466 341.107 476.788C333.506 484.109 329.038 494.091 328.642 504.637Z" fill="#243244"/>
<path d="M268.502 469.041L265.775 505.928H361.51C362.112 505.831 362.687 505.606 363.196 505.27C363.704 504.934 364.136 504.493 364.461 503.977C364.787 503.462 365 502.883 365.085 502.279C365.17 501.675 365.126 501.06 364.955 500.474C363.807 495.738 315.293 486.839 305.82 487.413C306.395 482.246 307.399 470.907 307.399 470.907L268.502 469.041Z" fill="white"/>
<path d="M361.51 507.508H265.832C265.644 507.513 265.456 507.477 265.283 507.403C265.109 507.328 264.954 507.217 264.828 507.077C264.541 506.765 264.386 506.353 264.397 505.929L267.124 469.042C267.127 468.861 267.168 468.682 267.243 468.517C267.318 468.353 267.426 468.205 267.561 468.084C267.696 467.963 267.854 467.871 268.025 467.813C268.197 467.756 268.379 467.734 268.559 467.75L307.456 469.759C307.645 469.754 307.832 469.79 308.006 469.864C308.179 469.939 308.335 470.05 308.461 470.19C308.611 470.335 308.718 470.52 308.769 470.723C308.819 470.926 308.812 471.139 308.748 471.338C308.748 471.338 307.887 480.668 307.313 486.265C313.197 486.409 325.972 488.275 338.746 490.858C365.299 496.312 366.017 499.327 366.304 500.475C366.525 501.27 366.575 502.104 366.451 502.92C366.328 503.736 366.033 504.517 365.586 505.211C365.142 505.862 364.569 506.415 363.902 506.835C363.236 507.254 362.49 507.532 361.711 507.651C361.653 507.508 361.653 507.508 361.51 507.508ZM267.354 504.637H361.366C361.74 504.586 362.099 504.458 362.42 504.26C362.742 504.062 363.018 503.8 363.232 503.489C363.637 502.742 363.74 501.869 363.519 501.049C361.079 497.317 315.867 488.562 305.82 489.136C305.607 489.159 305.392 489.133 305.19 489.062C304.988 488.991 304.805 488.875 304.653 488.724C304.502 488.572 304.387 488.389 304.315 488.187C304.244 487.985 304.219 487.77 304.241 487.557C304.672 483.538 305.389 475.788 305.676 472.63L269.794 470.764L267.354 504.637Z" fill="#243244"/>
<path d="M233.195 469.041L230.468 505.928H326.203C326.805 505.831 327.379 505.606 327.888 505.27C328.397 504.934 328.828 504.493 329.154 503.977C329.48 503.462 329.692 502.883 329.777 502.279C329.862 501.675 329.818 501.06 329.647 500.474C328.643 495.738 279.986 486.839 270.513 487.413C271.087 482.246 272.092 470.907 272.092 470.907L233.195 469.041Z" fill="white"/>
<path d="M326.202 507.508H230.467C230.278 507.513 230.091 507.477 229.918 507.403C229.744 507.328 229.589 507.217 229.462 507.077C229.175 506.765 229.021 506.353 229.032 505.929L231.759 469.042C231.762 468.861 231.803 468.682 231.878 468.517C231.953 468.353 232.061 468.205 232.196 468.084C232.33 467.963 232.488 467.871 232.66 467.813C232.832 467.756 233.014 467.734 233.194 467.75L272.091 469.759C272.28 469.754 272.467 469.79 272.641 469.864C272.814 469.939 272.969 470.05 273.096 470.19C273.246 470.335 273.353 470.52 273.403 470.723C273.454 470.926 273.447 471.139 273.383 471.338C273.383 471.338 272.522 480.668 271.947 486.265C277.832 486.409 290.606 488.275 303.381 490.858C329.934 496.312 330.651 499.327 330.939 500.475C331.16 501.27 331.21 502.104 331.086 502.92C330.963 503.736 330.668 504.517 330.221 505.211C329.777 505.862 329.204 506.415 328.537 506.835C327.87 507.254 327.124 507.532 326.346 507.651C326.346 507.508 326.346 507.508 326.202 507.508ZM232.046 504.637H326.116C326.49 504.586 326.849 504.458 327.17 504.26C327.491 504.062 327.768 503.8 327.982 503.489C328.386 502.742 328.489 501.869 328.269 501.049C325.829 497.317 280.617 488.562 270.57 489.136C270.357 489.159 270.141 489.133 269.94 489.062C269.738 488.991 269.554 488.875 269.403 488.724C269.252 488.572 269.136 488.389 269.065 488.187C268.993 487.985 268.968 487.77 268.991 487.557C269.421 483.538 270.139 475.788 270.426 472.63L234.543 470.764L232.046 504.637Z" fill="#243244"/>
<path d="M403.278 146.672C403.086 146.684 402.894 146.656 402.714 146.588C402.534 146.521 402.371 146.415 402.235 146.279C402.099 146.143 401.994 145.98 401.926 145.8C401.859 145.62 401.83 145.428 401.843 145.236V132.017C401.843 131.636 401.994 131.271 402.263 131.002C402.532 130.733 402.897 130.582 403.278 130.582C403.659 130.582 404.024 130.733 404.293 131.002C404.562 131.271 404.713 131.636 404.713 132.017V145.222C404.715 145.412 404.68 145.6 404.608 145.776C404.537 145.951 404.432 146.111 404.298 146.246C404.165 146.381 404.006 146.488 403.831 146.561C403.656 146.634 403.468 146.672 403.278 146.672Z" fill="#243244"/>
<path d="M397.25 153.848H433.276L427.679 207.385H404.283L397.25 153.848Z" fill="#FDE74C" fill-opacity="0.24"/>
<path d="M432.558 145.237H397.968L396.819 153.849H433.707L432.558 145.237Z" fill="#FDE74C" fill-opacity="0.24"/>
<path d="M437.007 155.284H393.575C393.194 155.284 392.829 155.133 392.56 154.864C392.291 154.594 392.14 154.229 392.14 153.849C392.14 153.468 392.291 153.103 392.56 152.834C392.829 152.565 393.194 152.413 393.575 152.413H437.065C437.445 152.413 437.81 152.565 438.08 152.834C438.349 153.103 438.5 153.468 438.5 153.849C438.5 154.229 438.349 154.594 438.08 154.864C437.81 155.133 437.445 155.284 437.065 155.284H437.007Z" fill="#243244"/>
<path d="M322.756 476.361H250.704L269.363 227.623H332.804L322.756 476.361Z" fill="#243244"/>
<path d="M286.731 476.361H214.535L233.194 227.623H296.778L286.731 476.361Z" fill="#243244"/>
<path d="M430.692 190.592C430.692 190.592 420.358 192.458 417.201 194.754C414.043 197.051 414.617 201.07 418.205 201.644C421.794 202.218 432.271 199.778 433.994 197.912C435.429 196.333 435.199 189.874 430.692 190.592Z" fill="white"/>
<path d="M419.497 203.08C419.014 203.119 418.528 203.07 418.062 202.936C417.091 202.816 416.178 202.411 415.437 201.772C414.697 201.134 414.162 200.29 413.9 199.348C413.691 198.257 413.811 197.128 414.246 196.106C414.68 195.083 415.409 194.213 416.34 193.607C419.784 191.166 429.401 189.444 430.406 189.157C431.395 188.945 432.427 189.07 433.338 189.512C434.248 189.954 434.984 190.688 435.429 191.597C436.577 193.894 436.434 197.482 435.142 198.917C433.133 200.912 424.09 203.08 419.497 203.08ZM430.98 192.028C428.253 192.458 420.502 194.181 418.062 195.903C417.589 196.211 417.207 196.639 416.955 197.143C416.702 197.648 416.589 198.211 416.627 198.774C416.753 199.175 417 199.529 417.333 199.785C417.667 200.042 418.072 200.19 418.493 200.209C421.794 200.783 431.697 198.343 433.133 196.908C433.589 195.597 433.537 194.164 432.989 192.889C432.781 192.558 432.478 192.299 432.119 192.145C431.76 191.991 431.363 191.95 430.98 192.028Z" fill="#243244"/>
<path d="M434.281 184.277C434.281 184.277 423.803 184.277 420.215 185.856C416.627 187.435 416.483 191.597 420.072 192.745C423.66 193.893 434.138 193.463 436.291 192.028C437.869 190.865 438.731 184.42 434.281 184.277Z" fill="white"/>
<path d="M426.387 195.042C424.07 195.097 421.754 194.856 419.498 194.325C418.569 194.016 417.75 193.446 417.138 192.681C416.527 191.917 416.15 190.992 416.053 190.019C416.041 188.911 416.364 187.826 416.978 186.904C417.593 185.982 418.471 185.267 419.498 184.852C423.23 183.129 433.133 183.129 434.138 183.129C435.137 183.123 436.112 183.441 436.914 184.036C437.717 184.632 438.304 185.472 438.587 186.43C439.305 188.871 438.587 192.315 437.009 193.463C435.43 194.612 430.693 195.042 426.387 195.042ZM433.994 185.713C430.98 185.713 423.373 186 420.79 187.148C420.292 187.355 419.857 187.69 419.53 188.118C419.202 188.546 418.993 189.053 418.924 189.588C418.924 190.449 419.498 191.023 420.502 191.311C423.66 192.459 433.851 191.885 435.43 190.736C435.786 190.137 436.02 189.474 436.118 188.784C436.217 188.095 436.178 187.392 436.004 186.718C435.903 186.351 435.673 186.033 435.357 185.822C435.041 185.611 434.659 185.521 434.281 185.569C434.138 185.713 434.138 185.713 433.994 185.713Z" fill="#243244"/>
<path d="M298.685 186.043L184.57 216.002L205.272 294.855L319.387 264.896L298.685 186.043Z" fill="white"/>
<path d="M205.205 296.231C204.898 296.207 204.603 296.102 204.35 295.925C204.098 295.748 203.898 295.507 203.77 295.226L183.102 216.428C183.013 216.067 183.069 215.685 183.256 215.364C183.443 215.043 183.748 214.807 184.106 214.706L298.213 184.708C298.601 184.613 299.009 184.664 299.361 184.851C299.674 185.068 299.922 185.366 300.079 185.713L320.748 264.511C320.843 264.898 320.791 265.307 320.604 265.659C320.387 265.972 320.089 266.22 319.743 266.377L205.636 296.375C205.579 296.32 205.511 296.279 205.437 296.255C205.362 296.23 205.283 296.222 205.205 296.231ZM186.259 217.002L206.21 293.073L317.59 263.793L297.639 187.722L186.259 217.002Z" fill="#243244"/>
<path d="M289.17 96.0059L264.483 99.7376C257.775 100.768 251.495 103.673 246.365 108.117C241.236 112.561 237.466 118.363 235.49 124.856L218.84 179.828C217.168 185.385 217.069 191.297 218.553 196.908L234.772 257.478L279.554 244.56L256.158 179.684L260.177 163.178" fill="white"/>
<path d="M234.63 259.057C234.382 259.079 234.132 259.029 233.912 258.913C233.599 258.696 233.351 258.399 233.194 258.052L217.033 197.482C215.475 191.638 215.575 185.475 217.32 179.684L233.969 124.712C236.037 117.969 239.96 111.943 245.29 107.323C250.62 102.704 257.142 99.6774 264.111 98.5895L288.798 94.8577C289.108 94.8953 289.397 95.0329 289.622 95.2496C289.846 95.4663 289.994 95.7503 290.043 96.0587C290.091 96.367 290.038 96.6827 289.891 96.9581C289.744 97.2335 289.512 97.4535 289.229 97.5847L264.541 101.317C258.11 102.332 252.093 105.13 247.171 109.392C242.249 113.654 238.621 119.21 236.696 125.43L220.047 180.402C218.446 185.677 218.347 191.293 219.76 196.621L235.548 255.755L277.459 243.699L254.494 180.258C254.424 180.126 254.387 179.978 254.387 179.828C254.387 179.678 254.424 179.53 254.494 179.397L258.513 162.891C258.657 162.59 258.902 162.348 259.205 162.207C259.508 162.067 259.85 162.037 260.174 162.122C260.497 162.207 260.78 162.402 260.975 162.673C261.169 162.945 261.263 163.276 261.24 163.609L257.365 179.684L280.617 244.13C280.761 244.499 280.761 244.909 280.617 245.278C280.529 245.449 280.407 245.601 280.259 245.724C280.111 245.847 279.94 245.94 279.756 245.995L234.974 258.913C234.917 259.057 234.773 259.057 234.63 259.057Z" fill="#243244"/>
<path d="M269.794 247.574L273.526 257.047C273.526 257.047 282.712 258.483 286.3 262.214C289.889 265.946 285.152 267.669 285.152 267.669C282.949 267.893 280.724 267.547 278.693 266.664C280.846 269.678 284.291 274.558 285.87 274.845C284.721 276.998 282.281 280.443 277.976 278.72C276.971 280.873 273.526 283.887 269.794 282.452C268.646 284.605 263.91 286.184 261.182 284.031C259.317 284.605 255.298 285.753 252.14 283.457C249.126 281.447 242.667 275.419 242.667 267.669C242.667 259.918 244.676 258.052 243.672 255.038C246.542 254.177 269.794 247.574 269.794 247.574Z" fill="white"/>
<path d="M264.398 286.471C263.172 286.512 261.965 286.16 260.954 285.466C258.801 286.04 254.782 286.901 251.337 284.605C249.615 283.457 241.29 277.141 241.146 267.668C241.174 264.825 241.462 261.99 242.008 259.2C242.48 258.009 242.531 256.692 242.151 255.468C242.068 255.282 242.038 255.076 242.063 254.874C242.088 254.672 242.169 254.48 242.295 254.32C242.383 254.148 242.504 253.997 242.652 253.873C242.8 253.75 242.972 253.658 243.156 253.602L269.278 245.995C269.621 245.9 269.987 245.935 270.306 246.094C270.624 246.253 270.872 246.525 271.001 246.856L274.446 255.612C276.886 256.042 283.919 257.621 287.22 261.066C287.86 261.633 288.352 262.348 288.652 263.148C288.952 263.949 289.052 264.811 288.942 265.659C288.685 266.435 288.234 267.133 287.631 267.686C287.028 268.238 286.293 268.628 285.497 268.816H285.21C284.207 268.899 283.199 268.899 282.196 268.816C283.246 270.494 284.554 271.996 286.072 273.266C286.498 273.425 286.854 273.73 287.076 274.127C287.156 274.338 287.184 274.566 287.159 274.79C287.134 275.015 287.057 275.23 286.933 275.419C284.206 280.442 280.761 280.873 278.464 280.299C277.584 281.65 276.324 282.71 274.843 283.349C273.363 283.987 271.726 284.174 270.14 283.887C268.953 285.02 267.453 285.77 265.834 286.04C265.489 286.471 264.915 286.471 264.398 286.471ZM261.241 282.595C261.55 282.602 261.85 282.702 262.102 282.882C262.593 283.238 263.159 283.475 263.757 283.574C264.355 283.674 264.967 283.634 265.547 283.457C266.138 283.384 266.709 283.194 267.227 282.898C267.744 282.603 268.198 282.207 268.561 281.734C268.718 281.395 269 281.131 269.348 280.997C269.697 280.863 270.083 280.87 270.427 281.016C273.297 282.165 276.024 279.581 276.742 278.146C276.899 277.807 277.181 277.543 277.53 277.409C277.878 277.275 278.265 277.282 278.608 277.428C280.043 278.002 282.053 278.289 284.062 275.275C281.846 273.104 279.873 270.698 278.177 268.099L277.747 267.525C277.538 267.286 277.423 266.98 277.423 266.663C277.423 266.347 277.538 266.04 277.747 265.802C277.837 265.665 277.955 265.549 278.092 265.459C278.229 265.37 278.384 265.31 278.545 265.283C278.707 265.256 278.873 265.263 279.032 265.303C279.19 265.343 279.339 265.415 279.469 265.515C281.2 266.205 283.064 266.499 284.923 266.376C285.354 266.233 286.215 265.802 286.215 265.228C286.215 264.654 285.928 264.08 285.21 263.362C282.483 260.492 275.737 258.913 273.297 258.626C273.047 258.596 272.809 258.5 272.608 258.349C272.406 258.198 272.248 257.996 272.149 257.765L268.848 249.44L245.165 256.186C245.235 257.445 245.09 258.707 244.735 259.917C244.117 262.502 243.827 265.154 243.874 267.812C243.874 275.993 251.911 281.878 252.772 282.452C255.356 284.318 258.801 283.313 260.523 282.739C260.733 282.652 260.957 282.604 261.183 282.595H261.241Z" fill="#243244"/>
<path d="M388.064 210.686L327.494 205.95C327.306 205.931 327.123 205.875 326.956 205.785C326.789 205.696 326.642 205.574 326.522 205.428C326.402 205.281 326.312 205.112 326.257 204.931C326.202 204.75 326.184 204.559 326.203 204.371C326.222 204.182 326.277 203.999 326.367 203.832C326.456 203.666 326.578 203.518 326.725 203.398C326.871 203.278 327.04 203.188 327.221 203.133C327.403 203.079 327.593 203.06 327.782 203.079L386.629 207.672L384.763 169.206L343.713 174.373C343.309 174.416 342.902 174.314 342.565 174.086C342.292 173.805 342.094 173.459 341.991 173.081L338.403 126.721C338.13 122.219 336.637 117.876 334.083 114.159C331.529 110.442 328.011 107.491 323.906 105.622L304.96 97.0099C304.68 96.8215 304.475 96.5403 304.382 96.2159C304.289 95.8915 304.313 95.5446 304.45 95.2362C304.587 94.9277 304.828 94.6774 305.132 94.5293C305.435 94.3812 305.781 94.3448 306.108 94.4264L325.054 103.038C329.648 105.109 333.588 108.397 336.447 112.546C339.306 116.695 340.975 121.547 341.273 126.577L344.718 171.359L385.768 166.192C386.174 166.132 386.586 166.235 386.916 166.479C387.19 166.76 387.387 167.105 387.49 167.483L389.356 209.107C389.367 209.531 389.213 209.943 388.926 210.256C388.829 210.393 388.699 210.504 388.549 210.579C388.399 210.654 388.232 210.691 388.064 210.686Z" fill="#243244"/>
<path d="M436.434 175.378C436.434 175.378 424.521 175.521 420.502 177.387C416.483 179.253 416.483 183.703 420.358 184.994C424.234 186.286 436.434 185.568 438.874 183.846C440.74 182.554 441.601 175.234 436.434 175.378Z" fill="white"/>
<path d="M426.818 187.147C424.5 187.202 422.185 186.96 419.928 186.429C418.883 186.165 417.947 185.58 417.252 184.756C416.556 183.932 416.137 182.911 416.053 181.836C416.048 180.62 416.398 179.429 417.061 178.409C417.724 177.389 418.671 176.585 419.785 176.095C423.947 174.086 435.142 173.942 436.291 173.942C437.393 173.887 438.48 174.214 439.369 174.868C440.258 175.522 440.894 176.462 441.171 177.53C442.032 180.258 441.171 183.846 439.448 185.138C437.726 186.429 431.985 187.147 426.818 187.147ZM436.434 176.813C433.133 176.813 424.09 177.243 421.076 178.679C419.641 179.396 418.78 180.545 418.923 181.549C418.97 182.043 419.178 182.507 419.516 182.871C419.853 183.234 420.301 183.476 420.789 183.559C424.521 184.851 436.147 183.846 438.013 182.554C438.409 181.918 438.664 181.205 438.763 180.463C438.862 179.72 438.802 178.966 438.587 178.248C438.468 177.786 438.183 177.383 437.785 177.118C437.388 176.854 436.907 176.745 436.434 176.813Z" fill="#243244"/>
<path d="M436.004 166.336C436.004 166.336 422.512 166.479 417.919 168.345C413.326 170.211 413.326 174.661 417.775 175.952C422.225 177.244 436.004 176.527 438.731 174.804C440.941 173.512 441.889 166.336 436.004 166.336Z" fill="white"/>
<path d="M425.238 178.106C422.636 178.16 420.036 177.919 417.488 177.388C416.352 177.176 415.316 176.599 414.538 175.744C413.761 174.889 413.284 173.803 413.182 172.651C413.038 170.355 414.617 168.202 417.488 166.91C422.224 164.901 435.573 164.757 436.147 164.757C437.362 164.682 438.566 165.026 439.558 165.731C440.551 166.436 441.272 167.46 441.601 168.632C442.319 171.36 441.457 174.804 439.591 175.953C437.439 177.388 430.98 178.106 425.238 178.106ZM436.147 167.771C432.415 167.771 422.224 168.202 418.636 169.781C417.057 170.498 416.052 171.647 416.196 172.651C416.34 173.656 417.057 174.374 418.492 174.804C422.798 176.096 436.003 175.235 438.156 173.8C438.612 173.248 438.929 172.595 439.079 171.896C439.229 171.196 439.207 170.47 439.017 169.781C438.844 169.166 438.463 168.631 437.94 168.264C437.417 167.898 436.783 167.724 436.147 167.771Z" fill="#243244"/>
<path d="M403.421 201.356C403.421 201.356 391.221 198.055 387.489 198.055C387.346 193.462 386.341 172.22 386.341 172.22C386.341 172.22 391.939 172.65 394.522 169.206C397.106 165.761 399.115 163.034 404.139 163.464C409.162 163.895 419.496 164.038 419.066 166.622C418.635 169.205 416.339 172.22 410.023 172.507L403.708 172.794C403.708 172.794 406.866 180.544 401.555 185.281" fill="white"/>
<path d="M403.422 202.793H402.991C399.69 201.931 390.361 199.491 387.49 199.491C387.109 199.491 386.744 199.34 386.475 199.071C386.206 198.802 386.055 198.437 386.055 198.056C385.911 193.463 384.906 172.221 384.906 172.221C384.884 172.008 384.909 171.793 384.981 171.591C385.052 171.389 385.167 171.206 385.319 171.054C385.47 170.903 385.654 170.787 385.855 170.716C386.057 170.645 386.272 170.619 386.485 170.642C386.485 170.642 391.222 171.072 393.375 168.202L393.662 167.915C396.245 164.47 398.685 161.312 404.283 162.03C405.431 162.174 406.723 162.173 408.158 162.317C414.617 162.748 418.636 163.178 420.072 164.901C420.28 165.158 420.428 165.46 420.502 165.784C420.577 166.107 420.577 166.443 420.502 166.766C420.215 168.776 418.493 173.369 410.168 173.799L405.575 174.087C406.293 176.957 406.867 182.411 402.561 186.287C402.27 186.482 401.918 186.564 401.571 186.518C401.224 186.471 400.905 186.3 400.676 186.035C400.447 185.77 400.322 185.431 400.325 185.081C400.329 184.731 400.46 184.394 400.695 184.134C405.144 180.115 402.561 173.512 402.417 173.225C402.338 173.014 402.309 172.787 402.334 172.562C402.359 172.338 402.437 172.122 402.561 171.934C402.846 171.566 403.253 171.312 403.709 171.216L410.024 170.929C415.766 170.642 417.201 168.202 417.631 166.479C416.34 165.618 410.742 165.188 407.871 165.044C406.436 164.901 405.001 164.901 403.996 164.757C399.977 164.326 398.398 166.336 395.958 169.637L395.671 169.924C393.518 172.795 389.93 173.369 387.777 173.512C387.921 177.962 388.638 191.31 388.782 196.621C393.812 197.46 398.794 198.562 403.709 199.922C404.067 200.023 404.372 200.259 404.559 200.58C404.747 200.902 404.802 201.283 404.714 201.644C404.711 201.807 404.674 201.967 404.606 202.114C404.538 202.261 404.44 202.393 404.319 202.501C404.198 202.609 404.055 202.69 403.901 202.741C403.747 202.791 403.583 202.809 403.422 202.793Z" fill="#243244"/>
<path d="M333.666 235.948C333.365 235.967 333.068 235.876 332.83 235.69C332.592 235.505 332.43 235.24 332.374 234.943C326.777 219.872 323.332 182.555 323.045 161.312C323.045 160.931 323.196 160.566 323.465 160.297C323.735 160.028 324.1 159.877 324.48 159.877C324.861 159.877 325.226 160.028 325.495 160.297C325.764 160.566 325.916 160.931 325.916 161.312C326.203 182.267 329.647 219.155 335.102 233.939C335.17 234.117 335.202 234.308 335.196 234.499C335.189 234.691 335.144 234.879 335.064 235.053C334.984 235.227 334.87 235.383 334.728 235.512C334.587 235.641 334.421 235.74 334.24 235.804C333.953 235.804 333.81 235.948 333.666 235.948Z" fill="#243244"/>
<path d="M324.336 154.422C323.955 154.422 323.59 154.271 323.321 154.002C323.052 153.733 322.9 153.368 322.9 152.987C322.9 143.658 323.044 140.213 323.044 140.069C323.044 139.689 323.195 139.324 323.464 139.054C323.733 138.785 324.099 138.634 324.479 138.634C324.86 138.634 325.225 138.785 325.494 139.054C325.763 139.324 325.914 139.689 325.914 140.069C325.914 140.069 325.771 143.658 325.771 152.844C325.791 153.044 325.769 153.246 325.706 153.437C325.643 153.628 325.54 153.804 325.405 153.953C325.27 154.101 325.104 154.22 324.92 154.301C324.736 154.382 324.537 154.423 324.336 154.422Z" fill="#243244"/>
<path d="M292.76 330.248C292.379 330.248 292.014 330.096 291.745 329.827C291.475 329.558 291.324 329.193 291.324 328.812L291.898 315.895C291.898 315.514 292.05 315.149 292.319 314.88C292.588 314.61 292.953 314.459 293.334 314.459C293.714 314.459 294.079 314.61 294.349 314.88C294.618 315.149 294.769 315.514 294.769 315.895L294.195 328.812C294.195 329.193 294.044 329.558 293.774 329.827C293.505 330.096 293.14 330.248 292.76 330.248Z" fill="#243244"/>
<path d="M286.731 477.797C286.351 477.797 285.985 477.646 285.716 477.377C285.447 477.108 285.296 476.743 285.296 476.362L291.037 342.448C291.037 342.067 291.188 341.702 291.458 341.433C291.727 341.164 292.092 341.013 292.472 341.013C292.853 341.013 293.218 341.164 293.487 341.433C293.757 341.702 293.908 342.067 293.908 342.448L288.167 476.362C288.179 476.554 288.151 476.746 288.083 476.926C288.015 477.106 287.91 477.269 287.774 477.405C287.638 477.541 287.475 477.646 287.295 477.714C287.115 477.782 286.923 477.81 286.731 477.797Z" fill="white"/>
<path d="M411.746 507.507H163.582C163.201 507.507 162.836 507.356 162.567 507.087C162.298 506.818 162.146 506.452 162.146 506.072C162.146 505.691 162.298 505.326 162.567 505.057C162.836 504.788 163.201 504.636 163.582 504.636H411.746C411.938 504.624 412.13 504.652 412.31 504.72C412.49 504.788 412.653 504.893 412.789 505.029C412.925 505.165 413.031 505.328 413.098 505.508C413.166 505.688 413.194 505.88 413.182 506.072C413.182 506.452 413.03 506.818 412.761 507.087C412.492 507.356 412.127 507.507 411.746 507.507Z" fill="#243244"/>
<path d="M248.122 506.072C248.122 494.881 243.676 484.147 235.762 476.234C227.848 468.32 217.115 463.874 205.924 463.874C194.732 463.874 183.999 468.32 176.085 476.234C168.171 484.147 163.726 494.881 163.726 506.072H248.122Z" fill="white"/>
<path d="M248.121 507.508H163.582C163.39 507.521 163.198 507.492 163.018 507.425C162.838 507.357 162.675 507.252 162.539 507.116C162.403 506.98 162.297 506.817 162.23 506.637C162.162 506.457 162.134 506.265 162.146 506.073C162.146 494.5 166.744 483.402 174.926 475.219C183.109 467.037 194.208 462.439 205.78 462.439C217.352 462.439 228.45 467.037 236.633 475.219C244.816 483.402 249.413 494.5 249.413 506.073C249.444 506.256 249.433 506.443 249.381 506.622C249.329 506.8 249.237 506.964 249.113 507.102C248.989 507.24 248.835 507.348 248.664 507.418C248.492 507.488 248.307 507.519 248.121 507.508ZM165.017 504.637H246.542C246.147 494.091 241.679 484.109 234.078 476.788C226.476 469.466 216.333 465.376 205.78 465.376C195.226 465.376 185.083 469.466 177.482 476.788C169.881 484.109 165.413 494.091 165.017 504.637Z" fill="#243244"/>
<path d="M205.924 524.731C200.975 524.731 196.229 522.765 192.73 519.266C189.231 515.766 187.265 511.02 187.265 506.072C187.252 505.88 187.28 505.688 187.348 505.508C187.416 505.328 187.521 505.165 187.657 505.029C187.793 504.893 187.956 504.788 188.136 504.72C188.316 504.652 188.508 504.624 188.7 504.636H223.291C223.483 504.624 223.675 504.652 223.855 504.72C224.035 504.788 224.198 504.893 224.334 505.029C224.47 505.165 224.575 505.328 224.643 505.508C224.71 505.688 224.739 505.88 224.726 506.072C224.63 511.015 222.613 515.727 219.104 519.209C215.594 522.692 210.867 524.672 205.924 524.731ZM190.135 507.507C190.135 511.694 191.799 515.71 194.76 518.671C197.72 521.632 201.736 523.295 205.924 523.295C210.111 523.295 214.127 521.632 217.088 518.671C220.049 515.71 221.712 511.694 221.712 507.507H190.135Z" fill="#243244"/>
<path d="M146.072 507.507H113.691C113.31 507.507 112.945 507.356 112.676 507.087C112.407 506.818 112.256 506.452 112.256 506.072C112.256 505.691 112.407 505.326 112.676 505.057C112.945 504.788 113.31 504.636 113.691 504.636H146.129C146.321 504.624 146.513 504.652 146.693 504.72C146.873 504.788 147.036 504.893 147.172 505.029C147.308 505.165 147.413 505.328 147.481 505.508C147.549 505.688 147.577 505.88 147.564 506.072C147.565 506.265 147.526 506.457 147.45 506.635C147.374 506.813 147.263 506.974 147.124 507.108C146.985 507.242 146.819 507.346 146.639 507.415C146.458 507.483 146.265 507.515 146.072 507.507Z" fill="#243244"/>
<path d="M105.309 507.507H95.8357C95.455 507.507 95.09 507.356 94.8208 507.087C94.5516 506.818 94.4004 506.452 94.4004 506.072C94.4004 505.691 94.5516 505.326 94.8208 505.057C95.09 504.788 95.455 504.636 95.8357 504.636H105.309C105.5 504.624 105.693 504.652 105.873 504.72C106.053 504.788 106.216 504.893 106.352 505.029C106.488 505.165 106.593 505.328 106.661 505.508C106.728 505.688 106.757 505.88 106.744 506.072C106.744 506.452 106.593 506.818 106.324 507.087C106.054 507.356 105.689 507.507 105.309 507.507Z" fill="#243244"/>
<path d="M225.731 438.469H182.241C181.86 438.469 181.495 438.318 181.226 438.049C180.957 437.78 180.806 437.415 180.806 437.034C180.806 436.653 180.957 436.288 181.226 436.019C181.495 435.75 181.86 435.599 182.241 435.599H225.731C225.923 435.586 226.115 435.614 226.295 435.682C226.475 435.75 226.638 435.855 226.774 435.991C226.91 436.127 227.015 436.29 227.083 436.47C227.15 436.65 227.179 436.842 227.166 437.034C227.166 437.415 227.015 437.78 226.746 438.049C226.477 438.318 226.111 438.469 225.731 438.469Z" fill="#243244"/>
<path d="M225.731 417.945H205.206C204.825 417.945 204.46 417.794 204.191 417.525C203.922 417.256 203.771 416.89 203.771 416.51C203.771 416.129 203.922 415.764 204.191 415.495C204.46 415.226 204.825 415.074 205.206 415.074H225.731C225.922 415.062 226.115 415.09 226.295 415.158C226.475 415.226 226.638 415.331 226.774 415.467C226.91 415.603 227.015 415.766 227.083 415.946C227.15 416.126 227.179 416.318 227.166 416.51C227.166 416.89 227.015 417.256 226.746 417.525C226.476 417.794 226.111 417.945 225.731 417.945Z" fill="#243244"/>
<path d="M337.484 32.1918C337.484 32.1918 351.693 31.6177 351.693 39.0813C351.693 44.1048 341.646 46.9755 338.345 49.4155C335.044 51.8555 336.766 70.5145 328.154 79.5569C323.848 84.0064 314.949 87.0205 306.194 85.2981L305.476 85.1546L303.467 95.4888C303.467 95.4888 294.712 99.9383 288.109 96.7806C287.535 89.7476 286.243 66.9262 286.243 66.9262C286.243 66.9262 276.914 70.658 274.761 62.1897C272.608 53.7214 280.933 49.1284 287.248 53.2908L284.808 29.6082L334.613 28.7471L337.484 32.1918Z" fill="white"/>
<path d="M287.362 53.5778L288.224 30.7564L334.871 28.8905C334.871 28.8905 352.238 7.36093 326.403 1.47617C318.652 0.0408651 315.351 9.22682 315.351 9.22682C315.351 9.22682 302.577 -4.83918 285.209 1.76323C267.842 8.36564 270.713 25.8764 270.713 25.8764C270.713 25.8764 258.082 29.6082 259.374 40.2294C260.666 50.8507 267.842 54.8696 267.842 54.8696C267.842 54.8696 255.068 63.4814 262.819 73.8156C270.569 84.1498 286.932 75.6815 286.932 75.6815L286.501 67.2132C286.501 67.2132 281.191 69.0791 278.464 67.2132C276.619 65.8147 275.385 63.758 275.019 61.472C274.709 60.0233 274.784 58.5186 275.238 57.1082C275.691 55.6978 276.506 54.431 277.602 53.4343C282.081 49.9895 287.362 53.5778 287.362 53.5778Z" fill="#243244"/>
<path d="M311.217 87.5222C307.524 87.5016 303.87 86.7707 300.453 85.3693C300.249 85.3186 300.06 85.2241 299.897 85.0923C299.734 84.9605 299.602 84.7946 299.51 84.6063C299.418 84.418 299.368 84.2119 299.364 84.0024C299.361 83.7929 299.403 83.5851 299.488 83.3936C299.573 83.2021 299.699 83.0316 299.857 82.894C300.015 82.7564 300.201 82.6551 300.403 82.5972C300.604 82.5392 300.816 82.5261 301.023 82.5587C301.23 82.5912 301.427 82.6687 301.601 82.7857C311.217 86.9481 322.269 83.934 327.006 78.9104C332.029 73.5998 333.321 64.7009 334.326 58.0985C335.044 53.0749 335.618 49.7737 337.34 48.4819C338.683 47.5158 340.127 46.6977 341.646 46.0419C345.091 44.3195 349.971 41.8795 349.971 39.2959C349.979 38.7866 349.881 38.2812 349.683 37.8117C349.486 37.3422 349.192 36.919 348.822 36.5689C346.095 33.9853 339.636 33.6983 337.34 33.8418C336.959 33.8418 336.594 33.6906 336.325 33.4214C336.056 33.1522 335.905 32.7871 335.905 32.4065C335.892 32.2147 335.92 32.0224 335.988 31.8425C336.056 31.6627 336.161 31.4993 336.297 31.3634C336.433 31.2275 336.596 31.1222 336.776 31.0546C336.956 30.9869 337.148 30.9585 337.34 30.9712C337.771 30.9712 346.813 30.5406 350.975 34.5594C351.641 35.1505 352.166 35.8821 352.514 36.7013C352.861 37.5206 353.022 38.4068 352.985 39.2959C352.985 43.7454 347.531 46.4725 343.081 48.6254C341.736 49.2432 340.441 49.9629 339.206 50.7784C338.345 51.3525 337.771 55.3714 337.34 58.529C336.335 65.4185 334.756 74.8915 329.159 80.7763C325.427 84.7234 318.537 87.5222 311.217 87.5222Z" fill="#243244"/>
<path d="M315.237 41.0906C316.426 41.0906 317.39 40.1267 317.39 38.9376C317.39 37.7486 316.426 36.7847 315.237 36.7847C314.048 36.7847 313.084 37.7486 313.084 38.9376C313.084 40.1267 314.048 41.0906 315.237 41.0906Z" fill="#243244"/>
<path d="M324.278 40.3731C325.467 40.3731 326.431 39.4091 326.431 38.2201C326.431 37.0311 325.467 36.0671 324.278 36.0671C323.089 36.0671 322.125 37.0311 322.125 38.2201C322.125 39.4091 323.089 40.3731 324.278 40.3731Z" fill="#243244"/>
<path d="M293.708 99.652C291.585 99.6384 289.486 99.1992 287.536 98.3602C287.331 98.2427 287.158 98.0764 287.033 97.8761C286.908 97.6758 286.834 97.4477 286.818 97.212C286.388 91.4708 285.383 74.6777 285.096 69.2235C282.662 69.872 280.079 69.6694 277.776 68.6494C276.688 68.0762 275.746 67.2602 275.024 66.2646C274.303 65.2689 273.82 64.1205 273.613 62.9082C272.609 58.6023 273.757 54.7269 277.058 52.4304C278.738 51.2964 280.724 50.7024 282.75 50.7281C284.776 50.7537 286.747 51.3978 288.397 52.574C288.557 52.6776 288.695 52.8118 288.804 52.9689C288.912 53.126 288.988 53.3029 289.028 53.4895C289.068 53.6761 289.071 53.8687 289.037 54.0564C289.002 54.2441 288.931 54.4232 288.828 54.5834C288.724 54.7436 288.59 54.8818 288.433 54.9902C288.276 55.0985 288.099 55.1749 287.912 55.2148C287.725 55.2548 287.533 55.2577 287.345 55.2232C287.157 55.1887 286.978 55.1177 286.818 55.014C285.646 54.1905 284.254 53.7367 282.821 53.7111C281.389 53.6856 279.981 54.0893 278.78 54.8705C277.691 55.7386 276.888 56.9155 276.479 58.2473C276.069 59.579 276.071 61.0034 276.484 62.334C276.607 63.147 276.918 63.9202 277.391 64.5927C277.865 65.2652 278.487 65.8186 279.211 66.2094C282.082 67.6447 285.957 66.0658 286.101 66.0658C286.312 65.9865 286.539 65.9581 286.764 65.983C286.988 66.008 287.203 66.0855 287.392 66.2094C287.76 66.4951 288.014 66.902 288.11 67.3576C288.11 67.6447 289.258 88.6001 289.832 96.3508C294.569 98.2167 300.597 95.9202 302.463 95.059L304.329 85.4425C304.367 85.254 304.441 85.0748 304.548 84.9151C304.655 84.7553 304.792 84.6183 304.952 84.5116C305.112 84.405 305.292 84.3309 305.48 84.2936C305.669 84.2563 305.863 84.2565 306.051 84.2942C306.24 84.3319 306.419 84.4064 306.579 84.5134C306.738 84.6203 306.875 84.7577 306.982 84.9176C307.089 85.0775 307.163 85.2569 307.2 85.4455C307.237 85.634 307.237 85.8281 307.2 86.0166L305.19 96.3508C305.074 96.7585 304.82 97.1134 304.472 97.3555C303.898 97.212 299.018 99.652 293.708 99.652Z" fill="#243244"/>
<path d="M544.412 549.993H1.43531C1.05464 549.993 0.689563 549.841 0.42039 549.572C0.151218 549.303 0 548.938 0 548.557C0 548.177 0.151218 547.812 0.42039 547.542C0.689563 547.273 1.05464 547.122 1.43531 547.122H544.555C544.747 547.109 544.939 547.138 545.119 547.205C545.299 547.273 545.462 547.378 545.598 547.514C545.734 547.65 545.84 547.814 545.907 547.993C545.975 548.173 546.003 548.366 545.991 548.557C545.992 548.759 545.95 548.958 545.869 549.142C545.788 549.326 545.67 549.491 545.521 549.627C545.372 549.762 545.196 549.864 545.005 549.928C544.814 549.991 544.612 550.013 544.412 549.993Z" fill="#243244"/>
<path d="M410.799 361.709C418.155 361.709 424.119 355.745 424.119 348.389C424.119 341.033 418.155 335.07 410.799 335.07C403.443 335.07 397.479 341.033 397.479 348.389C397.479 355.745 403.443 361.709 410.799 361.709Z" fill="#243244"/>
<path d="M182.342 44.3054L188.298 61.73L206.01 66.9833L191.126 77.8916L191.7 96.4501L176.687 85.6853L159.248 91.9145L164.917 74.3464L153.449 59.7493L172.008 59.6058L182.342 44.3054Z" fill="#243244"/>
</svg>
