<svg width="595" height="512" viewBox="0 0 595 512" fill="none" xmlns="http://www.w3.org/2000/svg">
<path d="M520.816 190.934C516.049 192.535 508.322 191.369 508.322 191.369L507.83 184.83L507.373 184.922C505.546 185.327 503.655 185.34 501.823 184.958C499.991 184.577 498.261 183.811 496.748 182.711C495.235 181.611 493.973 180.201 493.046 178.576C492.118 176.951 491.547 175.148 491.37 173.285C491.37 169.513 490.844 165.135 488.329 162.734C487.014 161.408 479.504 160.368 480.167 156.162C480.83 151.955 488.946 151.886 488.946 151.886L490.718 148.309L532.91 149.052L526.051 189.917L520.816 190.934Z" fill="white"/>
<path d="M479.756 293.814C479.756 293.814 487.563 244.752 488.535 238.843L483.505 214.46L488.923 201.406C491.21 195.794 495.302 190.147 502.538 189.575L508.047 189.152L549.782 192.387C549.782 192.387 557.097 194.902 559.772 201.212C561.315 204.95 566.962 223.411 571.318 237.791C572.658 242.216 572.307 246.981 570.332 251.161C568.357 255.341 564.899 258.638 560.63 260.413L560.973 262.939C560.973 262.939 564.505 287.367 564.562 293.551L479.756 293.814Z" fill="white"/>
<path d="M442.297 178.544L463.456 173.823C463.456 173.823 462.667 159.02 448.595 160.426C432.421 162.152 442.297 178.544 442.297 178.544Z" fill="white"/>
<path d="M479.664 294.956H479.55C479.268 294.874 479.021 294.703 478.846 294.467C478.67 294.232 478.576 293.946 478.578 293.653C478.727 292.853 491.255 214.368 492.227 208.47C492.271 208.167 492.433 207.893 492.679 207.71C492.924 207.527 493.232 207.448 493.536 207.492C493.839 207.536 494.112 207.699 494.295 207.944C494.479 208.19 494.557 208.498 494.513 208.801C493.541 214.711 481.013 293.196 480.864 293.984C480.822 294.267 480.675 294.524 480.453 294.704C480.231 294.883 479.949 294.974 479.664 294.956Z" fill="black"/>
<path d="M438.353 165.054C438.353 165.054 436.879 164.757 435.861 166.998C434.844 169.238 433.793 176.863 436.25 178.006C438.708 179.149 439.588 175.194 439.988 174.062C440.388 172.93 441.6 166.701 441.6 166.701C441.6 166.701 439.394 164.826 438.353 165.054Z" fill="white"/>
<path d="M437.096 179.425C436.676 179.368 436.262 179.268 435.861 179.128C432.169 177.356 434.067 168.52 434.844 166.611C435.873 164.325 437.382 163.868 438.273 163.914C439.771 163.754 441.634 165.331 442.411 165.937C442.557 166.067 442.67 166.231 442.739 166.414C442.809 166.597 442.834 166.794 442.811 166.989C442.674 167.674 441.485 173.333 441.085 174.464L440.96 174.796C440.56 176.042 439.874 178.408 438.239 179.128C437.905 179.359 437.5 179.464 437.096 179.425V179.425ZM438.239 166.2C438.01 166.2 437.542 166.509 437.039 167.514C435.999 169.984 435.473 176.362 436.924 177.002C437.267 177.139 437.382 177.139 437.496 177.002C438.205 176.693 438.753 174.716 439.016 174.099L439.142 173.641C439.405 172.967 440.137 169.572 440.605 167.08C440.046 166.589 439.403 166.202 438.708 165.937C438.652 166.024 438.574 166.095 438.481 166.141C438.389 166.188 438.285 166.208 438.182 166.2H438.239Z" fill="black"/>
<path d="M442.422 158.849C442.422 158.849 439.164 157.546 437.518 158.609C435.872 159.672 436.684 164.061 437.175 165.696C437.667 167.331 439.645 171.64 441.634 170.714C443.622 169.788 445.211 160.346 442.422 158.849Z" fill="white"/>
<path d="M440.89 171.935C440.579 171.932 440.27 171.878 439.976 171.775C437.621 170.747 436.124 166.208 436.009 166.06C435.895 165.911 433.929 159.441 436.867 157.75C439.153 156.366 442.468 157.75 442.811 157.91H442.925C444.263 158.653 444.983 160.402 444.96 163.156C444.96 166.128 443.92 170.769 442.045 171.707C441.673 171.838 441.284 171.915 440.89 171.935V171.935ZM439.427 159.361C438.944 159.317 438.459 159.416 438.033 159.647C437.21 160.059 437.53 163.168 438.227 165.363C438.719 166.871 439.976 169.341 440.879 169.718H440.993C441.588 169.283 442.902 165.683 442.708 162.471C442.708 160.87 442.239 160.184 441.908 159.921C441.118 159.602 440.279 159.42 439.427 159.384V159.361Z" fill="black"/>
<path d="M449.51 156.666C448.668 155.352 447.437 154.333 445.989 153.751C443.84 153.077 441.999 158.255 441.919 162.141C441.839 166.028 442.388 169.377 445.017 169.263C447.646 169.149 448.446 166.337 448.881 164.988C449.315 163.639 449.51 156.666 449.51 156.666Z" fill="white"/>
<path d="M444.743 170.392C443.884 170.34 443.072 169.978 442.457 169.375C441.143 168.049 440.571 165.626 440.743 162.082C440.891 158.779 442.126 154.595 444.023 153.086C444.33 152.847 444.687 152.681 445.067 152.6C445.447 152.518 445.84 152.525 446.218 152.617C447.947 153.283 449.417 154.484 450.413 156.047C450.528 156.216 450.595 156.414 450.607 156.618C450.527 158.333 450.379 163.934 449.853 165.397L449.716 165.74C449.19 167.203 448.024 170.232 444.926 170.427L444.743 170.392ZM445.692 154.995C445.649 154.995 445.606 155.004 445.567 155.022C445.528 155.04 445.492 155.066 445.464 155.098C444.389 155.967 443.177 159.339 443.063 162.311C442.869 166.3 443.726 167.603 444.057 167.958C444.144 168.08 444.267 168.172 444.408 168.221C444.549 168.27 444.703 168.274 444.846 168.232C446.332 168.232 446.972 166.609 447.624 165.043L447.75 164.7C448.108 162.208 448.306 159.696 448.344 157.178C448.084 156.646 447.712 156.176 447.255 155.799C446.797 155.423 446.264 155.148 445.692 154.995V154.995Z" fill="black"/>
<path d="M456.962 156.333C456.962 156.333 455.442 161.865 454.482 165.249C453.521 168.632 451.052 169.821 448.766 168.872C446.48 167.923 447.84 162.014 449.303 157.567C450.767 153.12 455.019 151.086 458.7 152.412C460.163 152.938 461.877 155.532 461.512 158.264" fill="white"/>
<path d="M450.115 170.429C449.53 170.392 448.957 170.249 448.423 170.006C444.994 168.691 446.88 161.455 448.332 157.295C449.115 154.909 450.813 152.931 453.053 151.796C454.953 150.87 457.141 150.727 459.146 151.396C461.169 152.071 463.078 155.248 462.803 158.552C462.759 158.855 462.597 159.128 462.351 159.312C462.106 159.495 461.798 159.573 461.495 159.529C461.191 159.485 460.918 159.323 460.735 159.077C460.552 158.832 460.473 158.524 460.517 158.22C460.746 155.934 459.248 153.808 458.46 153.534C457.026 153.051 455.462 153.141 454.093 153.785C452.388 154.656 451.088 156.157 450.47 157.969C448.469 163.936 448.412 167.48 449.326 167.754C450.062 168.04 450.877 168.04 451.613 167.754C452.103 167.451 452.522 167.046 452.841 166.567C453.161 166.087 453.373 165.545 453.464 164.976C454.425 161.547 455.945 156.049 455.945 156.049L458.231 156.62C458.231 156.62 456.711 162.153 455.751 165.536C455.588 166.422 455.228 167.26 454.698 167.988C454.167 168.716 453.48 169.316 452.687 169.743C451.929 170.248 451.025 170.49 450.115 170.429V170.429Z" fill="black"/>
<path d="M470.337 166.348L423.95 152.71C423.293 152.524 422.736 152.085 422.4 151.49C422.064 150.895 421.976 150.192 422.156 149.533V149.533C422.245 149.207 422.399 148.902 422.607 148.635C422.814 148.369 423.073 148.146 423.367 147.979C423.661 147.812 423.985 147.705 424.32 147.664C424.656 147.622 424.996 147.648 425.322 147.738L471.72 161.398C472.376 161.587 472.931 162.026 473.266 162.62C473.602 163.214 473.691 163.917 473.515 164.576V164.576C473.428 164.904 473.276 165.212 473.068 165.48C472.859 165.748 472.599 165.972 472.302 166.137C472.006 166.303 471.679 166.406 471.341 166.443C471.003 166.479 470.662 166.446 470.337 166.348V166.348Z" fill="white"/>
<path d="M470.851 167.628C470.538 167.638 470.227 167.584 469.937 167.468L423.55 153.831C423.073 153.693 422.629 153.46 422.242 153.148C421.856 152.836 421.536 152.45 421.301 152.012C421.066 151.575 420.92 151.095 420.873 150.601C420.825 150.106 420.876 149.608 421.024 149.133C421.152 148.659 421.38 148.217 421.694 147.838C422.007 147.459 422.399 147.153 422.841 146.939C423.271 146.683 423.75 146.522 424.246 146.465C424.742 146.408 425.245 146.456 425.722 146.607L472.108 160.256C472.584 160.394 473.027 160.626 473.412 160.938C473.798 161.249 474.117 161.634 474.352 162.07C474.587 162.506 474.733 162.985 474.782 163.478C474.83 163.971 474.78 164.469 474.635 164.942C474.392 165.747 473.888 166.447 473.203 166.933C472.518 167.42 471.69 167.664 470.851 167.628V167.628ZM470.611 165.342C470.99 165.432 471.386 165.412 471.754 165.285C472.088 165.079 472.344 164.77 472.486 164.405C472.578 164.026 472.558 163.629 472.429 163.262C472.326 162.919 471.88 162.667 471.548 162.53L425.162 148.825C424.782 148.736 424.385 148.759 424.019 148.893C423.684 149.094 423.429 149.405 423.298 149.773C423.239 149.95 423.216 150.138 423.231 150.324C423.247 150.51 423.3 150.691 423.388 150.856C423.475 151.02 423.596 151.166 423.742 151.282C423.888 151.399 424.056 151.484 424.236 151.534L470.622 165.251L470.611 165.342Z" fill="black"/>
<path d="M502.115 280.563L455.877 278.38L440.696 212.32L486.934 214.504L502.115 280.563Z" fill="white"/>
<path d="M502.069 281.707L455.819 279.524C455.569 279.5 455.329 279.407 455.127 279.256C454.926 279.105 454.77 278.901 454.676 278.667L439.53 212.722C439.491 212.543 439.496 212.357 439.543 212.18C439.591 212.003 439.681 211.84 439.805 211.705C440.053 211.452 440.388 211.305 440.742 211.293L486.98 213.476C487.231 213.502 487.469 213.595 487.671 213.746C487.872 213.897 488.029 214.1 488.123 214.334L503.281 280.279C503.32 280.458 503.315 280.644 503.268 280.821C503.22 280.998 503.13 281.161 503.006 281.296C502.758 281.548 502.422 281.695 502.069 281.707ZM456.803 277.284L500.64 279.353L486.031 215.728L442.182 213.648L456.803 277.284Z" fill="black"/>
<path d="M501.414 157.508C501.453 156.688 500.82 155.992 500 155.953C499.18 155.914 498.484 156.547 498.445 157.367C498.406 158.187 499.04 158.883 499.859 158.922C500.679 158.961 501.375 158.328 501.414 157.508Z" fill="black"/>
<path d="M507.664 158.5C507.703 157.68 507.07 156.984 506.25 156.945C505.43 156.907 504.734 157.54 504.695 158.359C504.656 159.179 505.29 159.875 506.109 159.914C506.929 159.953 507.625 159.32 507.664 158.5Z" fill="black"/>
<path d="M512.105 192.808C510.731 192.803 509.36 192.661 508.013 192.385C507.442 192.385 507.122 191.882 507.03 191.311L506.539 184.761C506.531 184.606 506.555 184.451 506.609 184.306C506.663 184.161 506.746 184.028 506.852 183.915C506.959 183.803 507.088 183.714 507.231 183.653C507.373 183.592 507.527 183.56 507.682 183.561C507.837 183.551 507.993 183.574 508.14 183.627C508.287 183.68 508.421 183.763 508.535 183.87C508.648 183.977 508.739 184.107 508.8 184.25C508.862 184.393 508.894 184.548 508.893 184.704L509.316 190.328C511.477 190.545 516.826 191.025 520.439 189.825C520.731 189.732 521.048 189.76 521.321 189.901C521.593 190.043 521.798 190.287 521.89 190.579C521.983 190.872 521.955 191.189 521.814 191.461C521.672 191.734 521.428 191.939 521.136 192.031C518.194 192.813 515.138 193.076 512.105 192.808V192.808Z" fill="black"/>
<path d="M488.935 148.23L525.514 149.956C525.514 149.956 520.941 155.923 522.953 160.598C524.965 165.273 527.651 169.971 525.182 173.858C523.515 176.389 522.587 179.335 522.504 182.364C522.421 185.394 523.187 188.386 524.714 191.004C527 195.348 525.011 201.658 525.011 201.658L566.516 190.227C566.516 190.227 556.537 178.647 557.372 172.052C558.206 165.456 563.704 161.375 557.372 155.008C551.039 148.641 558.412 145.212 554.628 138.171C551.988 133.347 545.987 132.032 540.008 134.958C538.191 129.837 536.91 125.654 529.057 126.957C524.908 127.677 521.467 127.746 517.215 125.711C512.963 123.676 501.337 122.67 493.519 130.878C487.277 137.165 488.935 148.23 488.935 148.23Z" fill="#243244"/>
<path d="M539.974 135.998H539.746C539.457 135.903 539.213 135.708 539.058 135.447C538.902 135.187 538.846 134.879 538.9 134.58C539.025 134.249 541.186 126.453 549.188 125.001C549.34 124.972 549.496 124.974 549.647 125.006C549.799 125.039 549.942 125.103 550.068 125.192C550.194 125.282 550.3 125.397 550.381 125.529C550.462 125.661 550.514 125.808 550.536 125.962C550.562 126.114 550.557 126.269 550.521 126.419C550.485 126.569 550.42 126.71 550.328 126.834C550.236 126.958 550.12 127.062 549.987 127.14C549.854 127.218 549.706 127.268 549.553 127.288C542.981 128.431 541.06 135.118 541.049 135.289C541.014 135.701 540.431 136.021 539.974 135.998Z" fill="black"/>
<path d="M503.669 186.227C501.172 186.138 498.751 185.346 496.684 183.941C494.892 182.743 493.391 181.159 492.289 179.306C491.188 177.453 490.514 175.377 490.317 173.23C490.237 170.133 489.997 165.663 487.688 163.491C487.066 163.096 486.388 162.796 485.677 162.6C482.864 161.457 478.589 159.856 479.229 155.993C480.155 151.009 488.18 150.814 489.094 150.86C489.385 150.896 489.655 151.028 489.862 151.235C490.069 151.442 490.201 151.713 490.237 152.003C490.219 152.3 490.092 152.58 489.882 152.791C489.671 153.001 489.391 153.127 489.094 153.146C487.265 153.146 481.973 153.844 481.504 156.45C481.184 158.267 483.539 159.41 486.568 160.588C487.559 160.922 488.501 161.387 489.369 161.971C492.329 164.749 492.672 169.573 492.718 173.402C492.89 175.176 493.456 176.89 494.373 178.418C495.291 179.947 496.537 181.251 498.022 182.238C501.577 184.581 506.378 184.696 511.625 182.535C511.768 182.45 511.927 182.398 512.093 182.381C512.258 182.365 512.425 182.384 512.582 182.438C512.739 182.493 512.882 182.581 513.002 182.696C513.121 182.812 513.214 182.952 513.274 183.107C513.334 183.262 513.359 183.428 513.348 183.594C513.337 183.76 513.29 183.921 513.21 184.067C513.131 184.213 513.02 184.34 512.886 184.438C512.753 184.537 512.599 184.605 512.436 184.639C509.647 185.74 506.667 186.28 503.669 186.227V186.227Z" fill="black"/>
<path d="M513.077 276.278C512.848 276.278 512.734 276.278 512.631 276.153C512.498 276.075 512.381 275.971 512.289 275.848C512.196 275.724 512.13 275.583 512.094 275.433L504.275 244.741C504.24 244.585 504.236 244.424 504.263 244.267C504.291 244.11 504.349 243.96 504.435 243.826C504.641 243.562 504.932 243.376 505.258 243.3L545.712 237.208C545.863 237.182 546.018 237.186 546.167 237.222C546.317 237.257 546.457 237.321 546.581 237.412C546.705 237.503 546.809 237.617 546.888 237.749C546.966 237.881 547.017 238.027 547.038 238.179C547.064 238.33 547.059 238.485 547.024 238.635C546.989 238.784 546.924 238.925 546.834 239.048C546.743 239.172 546.628 239.276 546.497 239.355C546.365 239.433 546.218 239.484 546.067 239.505L506.881 245.324L514.117 273.695L558.823 259.909C563.217 258.533 566.893 255.483 569.057 251.42C571.221 247.356 571.701 242.605 570.391 238.191C564.059 217.169 560.104 204.515 558.846 201.612C556.48 195.896 549.621 193.393 549.507 193.393C549.339 193.375 549.177 193.319 549.033 193.231C548.888 193.143 548.766 193.023 548.673 192.882C548.58 192.74 548.52 192.58 548.497 192.412C548.474 192.244 548.489 192.074 548.54 191.912C548.591 191.751 548.677 191.603 548.792 191.479C548.907 191.355 549.048 191.258 549.205 191.195C549.362 191.132 549.531 191.105 549.7 191.115C549.869 191.126 550.033 191.174 550.182 191.255C550.513 191.381 558.058 194.022 560.835 200.686C562.378 204.412 568.025 222.759 572.483 237.39C573.966 242.385 573.427 247.762 570.984 252.363C568.54 256.965 564.386 260.422 559.418 261.99L513.546 276.176C513.403 276.255 513.24 276.291 513.077 276.278V276.278Z" fill="black"/>
<path d="M469.182 253.37C473.096 253.37 476.269 250.197 476.269 246.282C476.269 242.368 473.096 239.195 469.182 239.195C465.268 239.195 462.095 242.368 462.095 246.282C462.095 250.197 465.268 253.37 469.182 253.37Z" fill="#243244"/>
<path d="M505.315 244.445C505.315 244.445 502.446 239.872 499.097 237.975C495.748 236.077 493.382 229.23 490.833 231.288C491.758 235.86 494.159 245.748 494.159 245.748C494.159 245.748 482.328 246.559 476.361 244.445C470.394 242.33 469.742 246.537 469.742 246.537C469.742 246.537 469.137 249.714 473.377 251.978C470.851 252.081 468.691 254.161 468.805 255.876C468.919 257.59 470.097 260.059 473.766 260.002C470.6 261.683 470.337 263.157 470.234 264.415C470.017 268.987 480.819 268.118 480.819 268.118C480.819 268.118 475.446 270.404 476.807 273.079C478.27 276.017 483.094 275.663 489.438 274.485C498.103 272.828 511.282 267.627 511.282 267.627L505.315 244.445Z" fill="white"/>
<path d="M481.379 276.382C478.75 276.256 476.727 275.479 475.664 273.478C475.478 273.088 475.373 272.664 475.356 272.231C475.338 271.799 475.408 271.368 475.561 270.964C475.858 270.304 476.273 269.704 476.784 269.192C474.383 269.077 471.548 268.483 470.017 267.031C469.625 266.683 469.318 266.249 469.12 265.764C468.921 265.278 468.837 264.754 468.874 264.231C468.878 263.523 469.04 262.825 469.346 262.186C469.652 261.548 470.096 260.985 470.645 260.539C469.747 260.138 468.973 259.501 468.408 258.696C467.842 257.891 467.505 256.948 467.433 255.966C467.404 255.408 467.491 254.85 467.687 254.327C467.884 253.803 468.187 253.326 468.576 252.926C469.093 252.369 469.695 251.898 470.36 251.531C469.595 250.908 469.004 250.097 468.645 249.177C468.287 248.258 468.173 247.261 468.313 246.284C468.44 245.686 468.691 245.12 469.049 244.624C469.407 244.128 469.865 243.712 470.394 243.404C471.926 242.443 473.995 242.432 476.464 243.404C480.967 244.993 489.209 244.924 492.536 244.741C491.873 241.849 490.249 235.128 489.495 231.55C489.448 231.341 489.46 231.123 489.531 230.921C489.602 230.719 489.728 230.541 489.895 230.407C490.436 229.921 491.146 229.666 491.873 229.698C493.473 229.892 494.65 231.435 496.056 233.333C496.979 234.722 498.14 235.937 499.486 236.922C503.052 238.923 506.035 243.644 506.138 243.781C506.18 243.827 506.211 243.881 506.229 243.941C506.247 244 506.251 244.063 506.241 244.124L512.128 267.18C512.184 267.441 512.152 267.713 512.039 267.954C511.925 268.196 511.736 268.394 511.499 268.517C510.916 268.723 498.091 273.718 489.426 275.479C486.799 276.155 484.091 276.459 481.379 276.382ZM480.796 266.86C481.047 266.885 481.285 266.978 481.487 267.13C481.688 267.281 481.845 267.484 481.939 267.717C481.99 267.979 481.955 268.251 481.84 268.492C481.724 268.732 481.535 268.93 481.299 269.055C480.156 269.569 478.247 270.632 477.87 271.752C477.799 271.86 477.769 271.988 477.784 272.115C477.798 272.243 477.857 272.361 477.95 272.45C479.093 274.736 484.385 274.119 489.381 273.215C496.536 271.832 506.904 267.98 510.048 266.757L504.378 244.844C502.888 242.489 500.946 240.453 498.663 238.854C497.027 237.739 495.622 236.318 494.525 234.67C493.849 233.723 493.083 232.842 492.238 232.041C493.267 236.899 495.279 245.233 495.279 245.347C495.345 245.657 495.287 245.981 495.119 246.25C495.019 246.374 494.894 246.476 494.752 246.548C494.61 246.621 494.455 246.664 494.296 246.673C493.839 246.673 482.122 247.473 476.006 245.233C474.212 244.581 472.726 244.512 471.891 245.038C471.645 245.178 471.431 245.369 471.264 245.597C471.096 245.826 470.979 246.087 470.92 246.364C470.92 246.479 470.577 248.753 473.926 250.628C474.144 250.76 474.318 250.952 474.428 251.181C474.538 251.411 474.578 251.668 474.543 251.92C474.475 252.155 474.336 252.364 474.147 252.519C473.957 252.674 473.725 252.768 473.48 252.788C472.408 252.872 471.405 253.353 470.668 254.137C470.291 254.489 470.062 254.971 470.028 255.486C470.108 256.172 470.451 258.595 473.892 258.527C474.151 258.519 474.406 258.599 474.614 258.755C474.821 258.911 474.97 259.133 475.035 259.384C475.069 259.644 475.027 259.908 474.916 260.145C474.805 260.382 474.628 260.582 474.406 260.721C471.594 262.196 471.537 263.213 471.491 264.151C471.476 264.346 471.505 264.542 471.576 264.724C471.647 264.906 471.759 265.07 471.903 265.202C473.435 266.654 478.235 266.883 480.876 266.654C480.682 266.848 480.807 266.86 480.807 266.86H480.796Z" fill="black"/>
<path d="M485.849 254.401C480.374 254.138 473.332 253.006 473.104 252.995C472.822 252.913 472.575 252.741 472.399 252.506C472.224 252.271 472.13 251.985 472.132 251.692C472.153 251.542 472.203 251.398 472.28 251.268C472.357 251.138 472.459 251.024 472.581 250.934C472.702 250.843 472.84 250.778 472.986 250.741C473.133 250.705 473.286 250.697 473.435 250.72C473.549 250.72 482.077 252.046 487.438 252.183C487.593 252.183 487.746 252.214 487.889 252.275C488.031 252.336 488.16 252.426 488.267 252.538C488.374 252.65 488.457 252.783 488.511 252.928C488.565 253.074 488.589 253.228 488.581 253.383C488.566 253.676 488.439 253.953 488.227 254.155C488.014 254.357 487.731 254.47 487.438 254.469L485.849 254.401Z" fill="black"/>
<path d="M476.943 261.294L473.628 261.145C473.325 261.13 473.04 260.995 472.837 260.77C472.633 260.545 472.527 260.248 472.542 259.945C472.558 259.642 472.693 259.357 472.918 259.154C473.143 258.95 473.44 258.844 473.743 258.859C473.846 258.859 483.653 259.671 488.854 258.654C489.125 258.641 489.391 258.726 489.605 258.891C489.819 259.057 489.968 259.293 490.024 259.558C490.08 259.823 490.041 260.099 489.912 260.337C489.784 260.576 489.575 260.761 489.323 260.86C485.225 261.458 481.073 261.603 476.943 261.294V261.294Z" fill="black"/>
<path d="M480.693 269.144C480.405 269.126 480.132 269.008 479.923 268.809C479.714 268.611 479.582 268.344 479.55 268.058C479.541 267.906 479.562 267.755 479.611 267.612C479.661 267.469 479.739 267.337 479.84 267.225C479.941 267.112 480.063 267.021 480.2 266.955C480.336 266.89 480.485 266.853 480.636 266.846C480.75 266.846 489.243 266.343 492.524 264.663C492.663 264.594 492.814 264.553 492.969 264.542C493.123 264.531 493.279 264.551 493.426 264.6C493.573 264.65 493.709 264.728 493.826 264.83C493.942 264.931 494.038 265.055 494.107 265.194C494.176 265.333 494.217 265.484 494.228 265.639C494.239 265.794 494.219 265.949 494.169 266.096C494.12 266.243 494.042 266.379 493.94 266.496C493.838 266.613 493.715 266.708 493.576 266.777C489.815 268.778 481.093 269.281 480.75 269.258C480.755 269.235 480.752 269.211 480.742 269.191C480.731 269.17 480.714 269.153 480.693 269.144Z" fill="black"/>
<path d="M483.46 215.488C483.333 215.493 483.21 215.448 483.117 215.362C482.976 215.304 482.848 215.218 482.741 215.109C482.634 215 482.55 214.871 482.493 214.73C482.437 214.588 482.409 214.436 482.412 214.284C482.415 214.132 482.449 213.981 482.511 213.842L487.929 200.822C491.153 193.083 496.045 188.842 502.481 188.351L507.99 187.928C508.141 187.919 508.293 187.939 508.436 187.989C508.579 188.039 508.71 188.117 508.823 188.218C508.936 188.319 509.027 188.441 509.092 188.578C509.158 188.714 509.195 188.863 509.202 189.014C509.21 189.169 509.186 189.324 509.132 189.469C509.078 189.614 508.995 189.747 508.888 189.859C508.781 189.972 508.653 190.061 508.51 190.122C508.368 190.183 508.214 190.214 508.059 190.214L502.538 190.648C497.142 191.071 492.844 194.764 489.964 201.725L484.546 214.745C484.463 214.966 484.315 215.155 484.12 215.288C483.926 215.421 483.695 215.491 483.46 215.488Z" fill="black"/>
<path d="M477.915 214.084L471.445 183.906L442.971 188.399L450.172 212.769L477.915 214.084Z" fill="white"/>
<path d="M477.858 215.227L450.116 213.912C449.885 213.887 449.668 213.793 449.492 213.642C449.317 213.491 449.191 213.29 449.132 213.066L441.942 188.581C441.881 188.429 441.864 188.263 441.892 188.101C441.92 187.939 441.993 187.789 442.103 187.667C442.228 187.335 442.583 187.232 442.925 187.129L471.411 182.648C471.697 182.616 471.986 182.684 472.227 182.84C472.469 182.997 472.649 183.232 472.737 183.506L479.196 213.798C479.235 213.977 479.231 214.163 479.183 214.34C479.135 214.517 479.045 214.68 478.921 214.815C478.789 214.963 478.624 215.077 478.439 215.148C478.255 215.22 478.055 215.247 477.858 215.227ZM451.019 211.694L476.487 212.838L470.588 185.095L444.411 189.233L451.019 211.694Z" fill="black"/>
<path d="M440.091 174.188C441.253 176.399 442.254 178.691 443.086 181.047C443.669 183.241 445.623 187.905 448.161 187.574C450.699 187.242 467.594 184.487 467.594 184.487C467.594 184.487 466.371 176.657 467.159 172.108C467.948 167.558 469.308 165.249 465.639 163.112C461.97 160.974 458.323 155.556 456.117 156.367C453.911 157.179 454.048 163.592 458.072 165.844C455.328 168.004 453.979 169.89 453.682 171.479" fill="white"/>
<path d="M447.658 188.73C444 188.558 442.046 181.597 441.943 181.368C441.118 179.089 440.152 176.863 439.051 174.704C438.982 174.565 438.942 174.414 438.932 174.26C438.922 174.106 438.943 173.951 438.993 173.804C439.043 173.658 439.121 173.523 439.223 173.406C439.325 173.29 439.449 173.195 439.588 173.127C439.727 173.058 439.878 173.018 440.032 173.008C440.187 172.998 440.341 173.019 440.488 173.069C440.634 173.119 440.77 173.197 440.886 173.299C441.002 173.401 441.097 173.525 441.165 173.664C442.326 175.991 443.349 178.384 444.229 180.831C445.006 183.735 446.812 186.684 447.955 186.547L466.405 183.643C465.833 179.815 465.71 175.932 466.039 172.075C466.199 171.161 466.348 170.372 466.496 169.686C467.216 166.52 467.262 165.491 465.147 164.245C463.462 163.201 461.925 161.936 460.575 160.484C459.272 159.17 457.146 157.238 456.597 157.546C456.369 157.661 455.991 158.209 455.946 159.238C455.898 160.351 456.132 161.459 456.625 162.458C457.119 163.456 457.856 164.315 458.769 164.954C458.935 165.045 459.073 165.182 459.166 165.347C459.259 165.513 459.303 165.701 459.295 165.891C459.301 166.078 459.27 166.264 459.203 166.439C459.136 166.613 459.035 166.773 458.906 166.908C455.934 169.286 455.168 170.852 455.008 171.869C454.986 172.019 454.935 172.164 454.858 172.294C454.78 172.425 454.678 172.538 454.556 172.629C454.435 172.72 454.296 172.786 454.149 172.823C454.002 172.86 453.85 172.868 453.699 172.847C453.396 172.803 453.123 172.64 452.94 172.395C452.756 172.149 452.678 171.841 452.722 171.538C453.027 169.831 454.254 168.059 456.403 166.222C455.48 165.348 454.763 164.278 454.304 163.092C453.845 161.906 453.657 160.632 453.751 159.364C453.732 158.614 453.92 157.873 454.295 157.224C454.67 156.574 455.218 156.041 455.877 155.683C457.855 154.86 459.946 156.826 462.347 159.112C463.554 160.426 464.926 161.578 466.428 162.542C470.097 164.656 469.526 167.263 468.92 170.326C468.771 171.001 468.623 171.801 468.462 172.612C467.811 176.933 468.931 184.535 468.931 184.649C468.957 184.801 468.952 184.957 468.916 185.107C468.88 185.257 468.814 185.398 468.723 185.522C468.631 185.646 468.515 185.75 468.382 185.828C468.249 185.906 468.101 185.956 467.948 185.975L448.458 189.061C448.208 188.915 447.939 188.803 447.658 188.73Z" fill="black"/>
<path d="M564.505 294.625C564.211 294.625 563.929 294.513 563.716 294.31C563.504 294.108 563.377 293.832 563.362 293.539C563.362 287.469 559.533 260.858 559.544 260.515C559.522 260.365 559.529 260.212 559.565 260.064C559.602 259.917 559.667 259.778 559.758 259.656C559.848 259.534 559.961 259.431 560.091 259.353C560.221 259.275 560.366 259.223 560.516 259.2C560.666 259.178 560.819 259.185 560.966 259.222C561.113 259.258 561.252 259.324 561.374 259.414C561.496 259.504 561.599 259.617 561.678 259.748C561.756 259.878 561.808 260.022 561.83 260.172C562.002 261.315 565.58 287.24 565.751 293.424C565.712 293.751 565.557 294.052 565.313 294.273C565.069 294.494 564.754 294.619 564.425 294.625H564.505Z" fill="black"/>
<path d="M488.191 468.889C488.596 475.48 488.668 482.088 488.408 488.687C471.171 488.264 429.413 498.54 428.453 503.353C427.493 508.165 433.163 508.28 433.163 508.28L525.125 508.497L523.41 468.031L488.191 468.889Z" fill="white"/>
<path d="M525.125 509.536L433.266 509.216C433.163 509.216 429.951 509.102 428.351 507.067C427.91 506.497 427.605 505.835 427.456 505.131C427.308 504.426 427.32 503.697 427.493 502.998C428.774 496.894 471.491 487.475 487.552 487.475C487.974 479.987 487.231 468.957 487.231 468.854C487.241 468.571 487.355 468.303 487.552 468.099C487.644 467.994 487.758 467.91 487.887 467.855C488.015 467.8 488.155 467.774 488.294 467.779L523.41 466.922C523.69 466.938 523.954 467.057 524.152 467.255C524.35 467.453 524.468 467.717 524.485 467.996L526.199 508.462C526.187 508.746 526.068 509.015 525.868 509.216C525.774 509.32 525.66 509.402 525.531 509.457C525.403 509.513 525.265 509.54 525.125 509.536V509.536ZM489.369 469.814C489.785 476.085 489.858 482.373 489.586 488.652C489.563 488.92 489.439 489.169 489.24 489.349C489.041 489.53 488.78 489.628 488.512 489.624C470.314 489.086 430.808 499.786 429.631 503.432C429.461 504.242 429.613 505.087 430.054 505.787C430.471 506.219 430.97 506.565 431.521 506.804C432.072 507.043 432.665 507.172 433.266 507.182L524.05 507.387L522.45 469.071L489.369 469.814Z" fill="black"/>
<path d="M520.735 479.555C520.735 479.555 521.478 481.052 520.952 488.7C503.715 488.277 461.957 498.553 460.997 503.366C460.037 508.178 465.707 508.292 465.707 508.292L557.669 508.509L555.954 478.789L520.735 479.555Z" fill="white"/>
<path d="M557.669 509.539L465.81 509.322C465.707 509.322 462.495 509.219 460.895 507.184C460.456 506.614 460.151 505.952 460.003 505.247C459.854 504.543 459.866 503.814 460.037 503.115C461.318 497.011 504.035 487.592 520.095 487.592C520.416 481.591 519.878 480.093 519.878 480.093C519.773 479.934 519.716 479.747 519.716 479.556C519.716 479.365 519.773 479.178 519.878 479.019C519.945 478.85 520.064 478.707 520.219 478.612C520.373 478.517 520.555 478.475 520.736 478.493L555.954 477.738C556.221 477.734 556.48 477.831 556.679 478.009C556.878 478.187 557.003 478.433 557.029 478.699L558.743 508.419C558.731 508.703 558.612 508.972 558.412 509.173C558.318 509.277 558.203 509.359 558.075 509.414C557.947 509.47 557.808 509.497 557.669 509.494V509.539ZM522.13 480.528C522.413 483.229 522.413 485.953 522.13 488.655C522.107 488.923 521.983 489.172 521.784 489.352C521.585 489.532 521.324 489.63 521.056 489.627C502.858 489.089 463.352 499.789 462.175 503.435C462.002 504.247 462.158 505.094 462.609 505.79C463.022 506.225 463.519 506.572 464.068 506.812C464.618 507.051 465.21 507.178 465.81 507.184L556.594 507.39L554.994 479.773L522.13 480.528Z" fill="black"/>
<path d="M537.116 475.486H466.244L480.373 295.14L530.669 294.5C530.692 311.806 537.116 475.383 537.116 475.486Z" fill="#243244"/>
<path d="M571.581 481.59H500.709L506.287 295.14L565.271 294.5C565.271 312.344 571.695 481.59 571.581 481.59Z" fill="#243244"/>
<path d="M500.823 482.662C500.538 482.662 500.264 482.549 500.063 482.348C499.861 482.146 499.748 481.873 499.748 481.588L502.96 372.994C502.96 372.709 503.073 372.436 503.275 372.234C503.476 372.033 503.75 371.92 504.035 371.92C504.178 371.911 504.321 371.933 504.455 371.985C504.59 372.036 504.711 372.114 504.813 372.216C504.914 372.317 504.993 372.439 505.044 372.573C505.095 372.707 505.117 372.851 505.109 372.994L501.897 481.588C501.897 481.729 501.869 481.869 501.815 481.999C501.761 482.129 501.682 482.248 501.582 482.348C501.483 482.447 501.364 482.527 501.234 482.581C501.103 482.635 500.964 482.662 500.823 482.662V482.662Z" fill="black"/>
<path d="M592.899 511.071H357.354C357.026 511.071 356.712 510.941 356.481 510.709C356.249 510.478 356.119 510.164 356.119 509.836C356.119 509.509 356.249 509.195 356.481 508.963C356.712 508.732 357.026 508.602 357.354 508.602H593.025C593.191 508.588 593.357 508.61 593.513 508.667C593.669 508.724 593.811 508.815 593.929 508.932C594.046 509.05 594.137 509.192 594.194 509.348C594.251 509.504 594.273 509.671 594.26 509.836C594.255 510.008 594.216 510.177 594.145 510.333C594.073 510.489 593.971 510.629 593.844 510.745C593.717 510.86 593.567 510.949 593.405 511.005C593.243 511.061 593.071 511.083 592.899 511.071V511.071Z" fill="black"/>
<path d="M57.7489 466.91L55.9199 510.119L154.112 509.89C154.112 509.89 160.17 509.776 159.141 504.632C158.112 499.488 113.532 488.515 95.128 488.972C94.8448 481.923 94.9211 474.865 95.3566 467.825L57.7489 466.91Z" fill="white"/>
<path d="M55.9204 511.265C55.7702 511.269 55.6209 511.24 55.4828 511.181C55.3446 511.122 55.221 511.033 55.1203 510.922C54.9126 510.705 54.7907 510.421 54.7773 510.122L56.6063 466.913C56.6275 466.616 56.7548 466.338 56.9647 466.128C57.1747 465.918 57.4532 465.791 57.7494 465.77V465.77L95.2428 466.684C95.393 466.68 95.5423 466.709 95.6805 466.768C95.8186 466.827 95.9423 466.915 96.043 467.027C96.2506 467.243 96.3725 467.528 96.3859 467.827C96.3859 467.941 95.5857 479.715 96.043 487.717C113.189 487.717 158.799 497.776 160.17 504.292C160.355 505.038 160.368 505.816 160.21 506.568C160.051 507.32 159.725 508.027 159.256 508.636C157.541 510.807 154.112 510.922 153.998 510.922L55.9204 511.265V511.265ZM58.7782 468.056L57.0635 508.978L153.998 508.75C154.64 508.745 155.275 508.611 155.864 508.356C156.453 508.101 156.985 507.729 157.427 507.264C157.906 506.519 158.07 505.615 157.884 504.749C156.627 500.862 114.447 489.432 95.0142 490.003C94.7298 490.005 94.4551 489.9 94.2438 489.71C94.0324 489.519 93.8995 489.257 93.8711 488.974C93.5789 482.269 93.6552 475.553 94.0997 468.856L58.7782 468.056Z" fill="black"/>
<path d="M22.9989 478.344L21.1699 510.122L119.362 509.893C119.362 509.893 125.42 509.779 124.391 504.635C123.362 499.491 78.7818 488.517 60.378 488.975C59.8064 480.859 60.6066 479.258 60.6066 479.258L22.9989 478.344Z" fill="white"/>
<path d="M21.1704 511.262C21.0202 511.266 20.8709 511.238 20.7328 511.179C20.5946 511.119 20.471 511.031 20.3703 510.919C20.1626 510.703 20.0407 510.419 20.0273 510.119L21.8563 478.341C21.8847 478.058 22.0176 477.796 22.229 477.606C22.4403 477.416 22.715 477.311 22.9994 477.313L60.6071 478.113C60.8007 478.097 60.9943 478.144 61.159 478.247C61.3238 478.35 61.4509 478.503 61.5216 478.684C61.6332 478.854 61.6927 479.053 61.6927 479.256C61.6927 479.459 61.6332 479.658 61.5216 479.827C61.5216 479.827 60.95 481.428 61.293 487.829C78.4394 487.829 124.049 497.888 125.42 504.404C125.605 505.15 125.618 505.928 125.46 506.68C125.301 507.432 124.975 508.139 124.506 508.748C122.791 510.919 119.362 511.034 119.248 511.034L21.1704 511.262V511.262ZM24.0282 479.484L22.3135 508.976L119.248 508.748C119.89 508.743 120.524 508.609 121.114 508.354C121.703 508.098 122.235 507.727 122.677 507.262C123.156 506.517 123.32 505.612 123.134 504.747C121.877 500.86 79.6968 489.429 60.2642 490.001C59.9798 490.002 59.7051 489.898 59.4938 489.707C59.2824 489.517 59.1495 489.255 59.1211 488.972C58.8136 486.084 58.8136 483.172 59.1211 480.285L24.0282 479.484Z" fill="black"/>
<path d="M49.9757 281.617L103.701 282.303L118.79 474.914H43.1172C43.1172 474.8 49.9757 300.135 49.9757 281.617Z" fill="#243244"/>
<path d="M13.0543 281.617L76.0386 282.303L81.9827 481.464H6.31001C6.1957 481.464 13.0543 300.707 13.0543 281.617Z" fill="#243244"/>
<path d="M210.923 162.851C214.124 162.622 216.639 167.88 210.923 169.824C205.208 171.767 200.521 169.366 197.206 172.796L192.52 173.253L192.977 167.652L199.95 162.508L210.923 162.851Z" fill="white"/>
<path d="M192.519 174.281C192.369 174.285 192.22 174.257 192.082 174.198C191.944 174.138 191.82 174.05 191.719 173.938C191.491 173.689 191.368 173.362 191.376 173.024L191.834 167.423C191.837 167.262 191.88 167.104 191.96 166.964C192.04 166.824 192.154 166.707 192.291 166.623L199.264 161.479C199.472 161.352 199.707 161.274 199.95 161.25L210.923 161.593C211.958 161.592 212.962 161.942 213.771 162.586C214.581 163.23 215.149 164.129 215.381 165.137C215.724 166.965 214.924 169.48 211.266 170.738C208.976 171.456 206.577 171.765 204.179 171.652C201.55 171.652 199.492 171.766 198.006 173.367C197.921 173.467 197.816 173.549 197.698 173.608C197.58 173.667 197.452 173.701 197.32 173.71L192.634 174.167C192.634 174.281 192.634 174.281 192.519 174.281ZM194.12 168.109L193.777 171.881L196.749 171.538C198.921 169.595 201.55 169.48 204.293 169.48C206.455 169.539 208.614 169.269 210.695 168.68C212.638 167.994 213.552 166.965 213.324 165.708C213.233 165.207 212.962 164.756 212.562 164.44C212.162 164.125 211.661 163.966 211.152 163.993H211.038L200.407 163.651L194.12 168.109Z" fill="black"/>
<path d="M191.148 173.481C191.148 173.481 197.435 171.766 199.721 173.023C202.351 174.395 202.694 175.424 201.665 179.539L193.777 185.14L189.319 178.544L191.148 173.481Z" fill="white"/>
<path d="M193.662 186.284H193.434C193.276 186.267 193.123 186.218 192.986 186.139C192.848 186.061 192.728 185.954 192.634 185.826L188.176 179.197C188.077 179.046 188.015 178.875 187.995 178.696C187.975 178.517 187.998 178.336 188.061 178.168L189.89 173.138C189.963 172.971 190.073 172.822 190.212 172.704C190.35 172.585 190.514 172.499 190.69 172.452C191.833 172.109 197.549 170.738 200.178 172.109C203.607 173.938 203.722 175.767 202.579 179.882C202.467 180.136 202.312 180.368 202.121 180.568L194.234 186.169C194.046 186.219 193.855 186.257 193.662 186.284V186.284ZM190.576 178.396L194.005 183.54L200.635 178.854C201.55 175.31 201.093 175.081 199.149 174.053C198.006 173.367 194.463 173.938 191.948 174.51L190.576 178.396Z" fill="black"/>
<path d="M132.507 228.577L182.118 209.145L169.658 178.738L114.561 204.001L96.8429 174.052C94.5592 170.206 91.4994 166.878 87.8585 164.28C84.2175 161.682 80.0752 159.871 75.6957 158.963L67.9227 157.362L48.833 157.02L31.0008 161.935C31.0008 161.935 18.7697 167.079 16.5978 176.566C14.426 186.054 6.76725 219.661 6.76725 219.661C6.76725 219.661 3.45228 231.092 10.9967 240.923C12.8256 243.209 16.4835 246.752 16.4835 246.752L13.0543 281.617H103.816L102.444 238.408L132.507 228.577Z" fill="white"/>
<path d="M132.507 229.719C132.284 229.737 132.06 229.68 131.873 229.555C131.687 229.43 131.547 229.246 131.478 229.033C131.424 228.89 131.399 228.738 131.404 228.586C131.409 228.434 131.444 228.284 131.508 228.145C131.572 228.007 131.663 227.882 131.776 227.78C131.888 227.677 132.021 227.598 132.164 227.547L180.746 208.571L169.201 180.337L115.132 205.142C114.869 205.246 114.579 205.257 114.309 205.174C114.039 205.091 113.805 204.918 113.646 204.685L95.9283 174.736C93.7268 171.02 90.7667 167.809 87.2412 165.314C83.7156 162.818 79.7037 161.094 75.467 160.253L67.6939 158.653C67.5438 158.623 67.4011 158.563 67.2739 158.478C67.1467 158.393 67.0375 158.283 66.9526 158.156C66.8677 158.029 66.8087 157.886 66.779 157.736C66.7493 157.586 66.7494 157.431 66.7795 157.281C66.8095 157.131 66.8688 156.988 66.954 156.861C67.0391 156.734 67.1486 156.624 67.2759 156.54C67.4033 156.455 67.5462 156.396 67.6963 156.366C67.8465 156.336 68.0011 156.336 68.1512 156.366L75.9242 157.967C80.4754 158.894 84.7811 160.767 88.5619 163.465C92.3428 166.163 95.5146 169.625 97.8716 173.627L115.018 202.662L169.201 177.857C169.495 177.742 169.821 177.742 170.115 177.857C170.277 177.906 170.424 177.994 170.544 178.114C170.663 178.233 170.752 178.38 170.801 178.542L183.261 208.949C183.375 209.243 183.375 209.569 183.261 209.863C183.19 210 183.094 210.12 182.976 210.219C182.858 210.317 182.722 210.39 182.575 210.435L132.965 229.867C132.829 229.776 132.671 229.724 132.507 229.719V229.719Z" fill="black"/>
<path d="M137.651 231.208L69.1796 196.344L19.3408 293.735L87.5834 329.857L137.651 231.208Z" fill="white"/>
<path d="M87.5834 330.998C87.3859 331.016 87.1874 330.976 87.0119 330.884L18.8836 294.762C18.7512 294.7 18.6333 294.61 18.5374 294.5C18.4416 294.389 18.3698 294.26 18.3268 294.12C18.2837 293.98 18.2704 293.833 18.2875 293.688C18.3047 293.542 18.352 293.402 18.4264 293.276L68.2652 195.885C68.3276 195.752 68.4169 195.634 68.5274 195.538C68.638 195.443 68.7673 195.371 68.9072 195.328C69.0471 195.285 69.1944 195.271 69.3397 195.288C69.485 195.306 69.6252 195.353 69.7512 195.427L138.222 230.292C138.355 230.354 138.473 230.443 138.569 230.554C138.664 230.664 138.736 230.794 138.779 230.934C138.822 231.074 138.836 231.221 138.819 231.366C138.801 231.512 138.754 231.652 138.68 231.778L88.4979 330.427C88.4278 330.563 88.3309 330.684 88.2131 330.782C88.0952 330.88 87.9589 330.954 87.812 330.998H87.5834ZM20.9412 293.276L87.1262 328.369L136.279 231.778L69.8655 197.976L20.9412 293.276Z" fill="black"/>
<path d="M36.9445 212.344L91.3557 236.12L74.5522 272.928L25.7422 251.666L36.9445 212.344Z" fill="white"/>
<path d="M90.0987 104.436C90.0987 104.436 97.4145 76.5442 66.6653 80.545C51.0049 82.8312 32.3725 94.0335 36.259 105.35C31.3437 108.322 22.5419 122.039 25.8569 135.528C29.0576 148.788 37.9737 153.017 49.2903 151.645C49.0617 147.073 45.1751 109.808 45.1751 109.808L90.0987 104.436Z" fill="#243244"/>
<path d="M67.9224 152.334V158.849C67.9224 158.849 61.5211 163.193 49.8615 158.963C49.5186 155.191 49.0614 143.532 49.0614 143.532C48.4892 144.643 47.5513 145.522 46.406 146.022C45.2606 146.522 43.978 146.611 42.7744 146.275C38.0877 145.361 36.9446 141.36 36.6017 137.931C36.2587 134.501 38.6592 128.214 47.2324 133.815L45.2892 109.811L87.6979 104.667C87.6979 104.667 98.2143 103.066 98.443 108.325C98.6716 113.583 95.3566 115.297 88.3837 116.898C88.2694 120.098 91.1272 154.163 71.9232 152.791L67.9224 152.334Z" fill="white"/>
<path d="M67.3514 119.753C68.2983 119.753 69.066 118.986 69.066 118.039C69.066 117.092 68.2983 116.324 67.3514 116.324C66.4044 116.324 65.6367 117.092 65.6367 118.039C65.6367 118.986 66.4044 119.753 67.3514 119.753Z" fill="black"/>
<path d="M74.8953 119.296C75.8423 119.296 76.6099 118.529 76.6099 117.582C76.6099 116.635 75.8423 115.867 74.8953 115.867C73.9483 115.867 73.1807 116.635 73.1807 117.582C73.1807 118.529 73.9483 119.296 74.8953 119.296Z" fill="black"/>
<path d="M59.4632 162.049C56.0194 162.023 52.6097 161.364 49.404 160.106C49.1901 160.023 49.0026 159.883 48.8617 159.702C48.7208 159.521 48.6317 159.305 48.6038 159.077C48.3752 156.448 48.0323 150.047 47.918 146.389C47.1267 146.935 46.2292 147.309 45.284 147.487C44.3387 147.664 43.3667 147.64 42.4311 147.418C38.2017 146.617 35.8012 143.417 35.344 138.044C35.1939 136.741 35.3896 135.421 35.9113 134.217C36.433 133.013 37.2623 131.968 38.316 131.186C40.7165 129.814 43.8029 130.271 47.6894 132.786C47.9471 132.953 48.128 133.215 48.1923 133.515C48.2566 133.815 48.199 134.129 48.0323 134.386C47.8655 134.644 47.6033 134.825 47.3031 134.889C47.003 134.954 46.6897 134.896 46.432 134.729C43.3456 132.786 40.9451 132.214 39.4591 133.129C37.9731 134.043 37.5158 136.444 37.6302 137.816C37.9731 142.274 39.6877 144.56 42.7741 145.131C46.5463 145.817 47.8037 143.074 47.8037 143.074C47.9038 142.833 48.083 142.634 48.3116 142.51C48.5403 142.385 48.8047 142.342 49.0611 142.388C49.3046 142.437 49.5255 142.564 49.6905 142.749C49.8555 142.935 49.9556 143.169 49.9756 143.417C49.9756 143.531 50.4328 153.819 50.7757 158.048C59.5775 161.02 64.9501 158.849 66.6647 158.048V152.333C66.6647 152.03 66.7851 151.739 66.9995 151.525C67.2139 151.31 67.5046 151.19 67.8078 151.19C68.1109 151.19 68.4017 151.31 68.6161 151.525C68.8304 151.739 68.9509 152.03 68.9509 152.333V158.849C68.9186 159.2 68.7554 159.526 68.4936 159.763C68.265 159.992 65.1787 162.049 59.4632 162.049Z" fill="black"/>
<path d="M72.8375 153.933H71.5801L63.8071 153.133C63.5214 153.065 63.2658 152.906 63.0799 152.678C62.894 152.451 62.788 152.169 62.7783 151.876C62.8302 151.582 62.9856 151.317 63.2163 151.128C63.447 150.939 63.7377 150.84 64.0357 150.847L71.8087 151.647C73.3419 151.818 74.8939 151.651 76.3554 151.157C77.8169 150.663 79.1523 149.855 80.2676 148.789C87.5834 141.816 87.1262 124.441 87.0119 118.726V116.897C87.0319 116.649 87.1319 116.415 87.2969 116.23C87.4619 116.044 87.6829 115.917 87.9263 115.868C95.1278 114.268 97.1854 112.553 97.0711 108.438C97.0907 108.153 97.0382 107.867 96.9183 107.607C96.7985 107.348 96.6151 107.122 96.3852 106.952C94.442 105.352 89.5267 105.695 87.6977 105.923C87.5373 105.998 87.3618 106.034 87.185 106.029C87.0082 106.024 86.835 105.978 86.679 105.895C86.523 105.811 86.3884 105.693 86.2858 105.549C86.1832 105.405 86.1155 105.239 86.0879 105.064C86.0604 104.89 86.0737 104.711 86.1269 104.542C86.1801 104.374 86.2716 104.22 86.3944 104.093C86.5172 103.965 86.6679 103.868 86.8345 103.809C87.0011 103.75 87.1792 103.73 87.3548 103.751C88.155 103.637 94.7849 102.723 97.7569 105.237C98.2346 105.628 98.6242 106.115 98.9 106.666C99.1759 107.218 99.3317 107.822 99.3573 108.438C99.5859 114.839 95.0135 116.668 89.2981 118.04V118.84C89.4124 124.784 89.8696 143.074 81.868 150.618C79.3754 152.809 76.1554 153.991 72.8375 153.933V153.933Z" fill="black"/>
<path d="M36.2589 106.528C36.0527 106.53 35.8498 106.478 35.6696 106.377C35.4894 106.277 35.338 106.133 35.2301 105.957C35.1158 105.614 31.3436 98.9841 24.7136 101.385C24.571 101.437 24.4194 101.461 24.2676 101.455C24.1157 101.449 23.9666 101.413 23.8286 101.349C23.6906 101.286 23.5665 101.195 23.4634 101.084C23.3602 100.972 23.2801 100.841 23.2276 100.699C23.1751 100.556 23.1511 100.405 23.1572 100.253C23.1632 100.101 23.1991 99.9517 23.2628 99.8137C23.3264 99.6757 23.4167 99.5516 23.5283 99.4485C23.64 99.3454 23.7708 99.2653 23.9135 99.2127C30.6577 96.6979 35.573 101.728 37.1733 104.814C37.2531 104.948 37.3046 105.097 37.3247 105.251C37.3448 105.406 37.3331 105.563 37.2903 105.713C37.2475 105.863 37.1744 106.002 37.0757 106.123C36.9769 106.243 36.8546 106.343 36.7161 106.414C36.6018 106.38 36.4875 106.528 36.2589 106.528Z" fill="black"/>
<path d="M74.5524 274.072C74.3912 274.089 74.2292 274.048 74.0951 273.957L23.7991 252.124C17.3514 249.868 11.948 245.338 8.60199 239.382C5.25598 233.427 4.19711 226.455 5.6239 219.775L14.3114 179.652C15.3169 174.884 17.6384 170.494 21.0126 166.978C24.3867 163.462 28.6784 160.963 33.401 159.762L49.29 155.647C49.5554 155.629 49.819 155.704 50.0352 155.859C50.2514 156.014 50.4067 156.239 50.4744 156.497C50.5421 156.754 50.518 157.027 50.4061 157.268C50.2942 157.51 50.1017 157.704 49.8616 157.819L33.9726 161.934C29.6636 163.03 25.7494 165.315 22.6771 168.529C19.6048 171.742 17.4981 175.755 16.5976 180.109L7.91009 220.232C6.58848 226.384 7.56896 232.807 10.6658 238.284C13.7627 243.762 18.7608 247.913 24.7135 249.952L73.9808 271.442L89.7555 236.692L36.4874 213.373C36.2644 213.223 36.1014 212.999 36.027 212.741C35.9527 212.483 35.9718 212.206 36.081 211.961C36.1902 211.715 36.3824 211.516 36.624 211.398C36.8656 211.28 37.141 211.251 37.4019 211.316L91.813 235.092C91.9495 235.162 92.0704 235.259 92.1686 235.377C92.2667 235.495 92.3402 235.631 92.3846 235.778C92.4994 236.072 92.4994 236.398 92.3846 236.692L75.6955 273.5C75.5636 273.679 75.3913 273.824 75.1926 273.923C74.9939 274.023 74.7745 274.073 74.5524 274.072V274.072Z" fill="black"/>
<path d="M87.8123 243.895C87.8123 243.895 98.5573 248.467 105.187 249.381C113.075 250.524 132.05 244.352 134.679 248.353C136.165 250.639 132.736 252.696 131.021 253.954C128.134 255.604 125.157 257.092 122.105 258.412C122.105 258.412 128.392 258.755 128.849 263.098C128.964 264.813 128.964 268.814 123.705 268.128C125.763 270.414 127.363 272.015 125.992 274.301C124.62 276.587 119.476 275.444 119.476 275.444C119.476 275.444 124.163 278.645 122.105 281.502C120.733 283.331 119.133 284.131 115.704 282.76C116.733 284.817 116.275 286.418 115.475 287.218C111.703 291.447 99.2432 284.589 95.5853 281.845C92.6133 279.559 80.4965 266.756 77.4102 266.756L87.8123 243.895Z" fill="white"/>
<path d="M111.818 289.619C105.645 289.619 96.7287 284.132 94.8998 282.76C93.9853 282.074 92.2707 280.36 89.9845 278.302C86.4409 274.987 79.0108 267.9 77.2961 267.9C77.1055 267.9 76.9186 267.846 76.757 267.745C76.5953 267.644 76.4652 267.5 76.3817 267.328C76.2773 267.159 76.2128 266.968 76.193 266.77C76.1732 266.572 76.1987 266.372 76.2674 266.185L86.6695 243.323C86.7943 243.054 87.0192 242.843 87.2966 242.736C87.5741 242.63 87.8821 242.635 88.1555 242.752C88.2698 242.752 98.7863 247.21 105.188 248.124C108.388 248.582 113.646 247.781 118.676 246.981C126.678 245.724 133.536 244.695 135.48 247.553C137.423 250.411 133.879 253.04 131.936 254.297L131.479 254.64C129.574 255.811 127.588 256.842 125.535 257.726C127.478 258.526 129.65 259.898 129.878 262.756C130.107 265.042 129.65 266.757 128.392 267.786C127.747 268.366 126.957 268.761 126.106 268.929C127.364 270.643 128.164 272.358 126.906 274.53C126.403 275.199 125.745 275.736 124.988 276.094C124.232 276.453 123.399 276.622 122.563 276.587C123.123 277.289 123.514 278.111 123.706 278.988C123.878 280.03 123.632 281.099 123.02 281.96C122.432 282.897 121.562 283.623 120.535 284.034C119.507 284.445 118.376 284.519 117.304 284.246C117.402 284.858 117.361 285.485 117.182 286.078C117.004 286.672 116.694 287.218 116.276 287.675C115.76 288.352 115.079 288.886 114.299 289.226C113.519 289.566 112.665 289.701 111.818 289.619V289.619ZM79.0108 266.071C81.7542 267.328 86.098 271.329 91.6991 276.587C93.1712 278.094 94.7365 279.507 96.3858 280.817C100.501 283.903 111.703 289.619 114.675 286.304C114.904 286.075 115.59 285.046 114.675 283.103C114.592 282.895 114.572 282.668 114.617 282.448C114.662 282.229 114.77 282.028 114.928 281.87C115.086 281.712 115.288 281.603 115.507 281.558C115.726 281.513 115.954 281.534 116.161 281.617C119.362 282.874 120.276 281.96 121.191 280.817C121.408 280.474 121.527 280.079 121.534 279.674C121.079 278.321 120.143 277.182 118.905 276.473C118.703 276.314 118.552 276.099 118.471 275.856C118.389 275.612 118.381 275.35 118.447 275.101C118.56 274.87 118.741 274.68 118.967 274.557C119.192 274.434 119.45 274.385 119.705 274.415C121.42 274.758 124.277 274.873 124.963 273.73C125.763 272.358 125.192 271.443 123.134 269.272L122.791 268.814C122.637 268.646 122.542 268.432 122.521 268.205C122.501 267.978 122.555 267.75 122.677 267.557C122.772 267.344 122.938 267.171 123.146 267.066C123.355 266.962 123.593 266.933 123.82 266.985C124.344 267.135 124.895 267.162 125.43 267.063C125.966 266.963 126.471 266.741 126.906 266.414C127.254 265.966 127.497 265.446 127.616 264.892C127.735 264.338 127.726 263.764 127.592 263.213C127.249 259.898 121.991 259.555 121.991 259.555C121.744 259.535 121.509 259.435 121.324 259.27C121.138 259.105 121.011 258.884 120.962 258.641C120.916 258.384 120.959 258.12 121.084 257.891C121.209 257.663 121.408 257.483 121.648 257.383C124.633 256.12 127.534 254.669 130.336 253.04L130.907 252.697C133.193 251.096 134.451 249.953 133.765 249.039C132.622 247.324 124.849 248.582 119.248 249.382C113.989 250.182 108.617 250.982 105.073 250.525C99.4721 249.725 91.3562 246.524 88.3841 245.381L79.0108 266.071Z" fill="black"/>
<path d="M123.705 268.129C121.657 268.062 119.623 267.755 117.646 267.215Z" fill="white"/>
<path d="M123.705 269.271C121.543 269.218 119.395 268.911 117.304 268.357C117.161 268.304 117.031 268.224 116.919 268.121C116.807 268.018 116.717 267.894 116.653 267.756C116.525 267.477 116.512 267.158 116.618 266.87C116.724 266.582 116.941 266.348 117.219 266.22C117.498 266.091 117.816 266.079 118.104 266.185C119.975 266.655 121.891 266.923 123.82 266.985C124.123 266.985 124.414 267.105 124.628 267.32C124.842 267.534 124.963 267.825 124.963 268.128C124.92 268.435 124.771 268.718 124.541 268.927C124.311 269.136 124.016 269.258 123.705 269.271V269.271Z" fill="black"/>
<path d="M119.476 275.445C119.476 275.445 116.161 274.987 114.789 274.645Z" fill="white"/>
<path d="M119.476 276.588H119.362C119.247 276.588 115.932 276.131 114.561 275.788C114.321 275.673 114.128 275.478 114.016 275.237C113.904 274.996 113.88 274.723 113.948 274.465C114.016 274.208 114.171 273.983 114.387 273.827C114.603 273.672 114.867 273.598 115.132 273.616C116.39 273.959 119.59 274.416 119.59 274.416C119.876 274.484 120.132 274.643 120.317 274.871C120.503 275.098 120.609 275.38 120.619 275.674C120.566 275.936 120.422 276.171 120.213 276.338C120.004 276.505 119.743 276.593 119.476 276.588Z" fill="black"/>
<path d="M115.704 282.758C114.161 282.158 112.67 281.431 111.246 280.586Z" fill="white"/>
<path d="M115.704 283.901C115.543 283.918 115.381 283.878 115.247 283.787C113.561 283.183 111.951 282.39 110.446 281.421C110.315 281.323 110.206 281.197 110.128 281.054C110.049 280.91 110.003 280.751 109.991 280.587C109.98 280.424 110.003 280.26 110.06 280.107C110.118 279.953 110.207 279.814 110.323 279.698C110.439 279.582 110.578 279.493 110.732 279.435C110.885 279.378 111.049 279.355 111.212 279.366C111.376 279.378 111.535 279.424 111.679 279.503C111.822 279.581 111.948 279.69 112.046 279.821C113.352 280.598 114.73 281.249 116.161 281.764C116.305 281.815 116.437 281.894 116.55 281.997C116.662 282.099 116.753 282.224 116.817 282.362C116.881 282.501 116.917 282.651 116.922 282.803C116.927 282.955 116.901 283.107 116.847 283.25C116.548 283.587 116.146 283.816 115.704 283.901Z" fill="black"/>
<path d="M122.105 258.411C119.992 258.241 117.892 257.935 115.818 257.496Z" fill="white"/>
<path d="M122.105 259.554C119.914 259.404 117.736 259.098 115.589 258.639C115.349 258.525 115.156 258.33 115.044 258.089C114.933 257.847 114.908 257.574 114.976 257.317C115.044 257.06 115.199 256.834 115.415 256.679C115.632 256.524 115.895 256.449 116.161 256.468C118.218 256.925 122.219 257.268 122.219 257.268C122.376 257.264 122.531 257.296 122.674 257.361C122.816 257.426 122.942 257.523 123.041 257.645C123.14 257.766 123.21 257.908 123.246 258.061C123.282 258.214 123.283 258.372 123.248 258.525C123.206 258.802 123.069 259.056 122.86 259.244C122.652 259.432 122.385 259.541 122.105 259.554V259.554Z" fill="black"/>
<path d="M187.032 186.167C188.404 182.052 197.777 179.08 202.807 176.565C207.837 174.05 209.666 177.479 209.323 179.88C208.865 182.052 205.093 183.195 201.55 186.396C198.006 189.596 199.949 196.455 195.834 200.798C191.719 205.142 179.831 203.542 179.831 203.542L171.601 183.423C171.601 183.423 180.631 179.88 184.06 173.593C187.49 167.306 191.262 162.276 196.749 159.647C201.435 157.475 210.466 156.104 213.781 157.018C216.181 157.704 218.353 161.819 210.123 163.534C201.893 165.248 199.263 165.82 197.092 168.563C194.92 171.307 194.005 177.594 194.462 180.337" fill="white"/>
<path d="M184.632 204.915C182.949 204.973 181.263 204.858 179.603 204.572C179.398 204.565 179.201 204.496 179.037 204.373C178.874 204.251 178.752 204.08 178.688 203.886L170.458 183.768C170.343 183.474 170.343 183.147 170.458 182.853C170.528 182.717 170.625 182.596 170.743 182.498C170.861 182.399 170.997 182.326 171.144 182.282C171.258 182.282 179.831 178.738 182.918 172.908C186.919 165.364 191.034 160.906 196.178 158.505C201.093 156.219 210.352 154.733 214.01 155.762C214.852 155.974 215.601 156.459 216.139 157.141C216.676 157.824 216.973 158.665 216.982 159.534C216.982 160.906 216.068 163.306 210.238 164.564C202.007 166.278 199.721 166.85 197.892 169.136C196.406 171.079 195.378 175.652 195.378 178.624C196.406 178.166 197.435 177.709 198.35 177.366C199.721 176.795 201.093 176.223 202.236 175.652C205.551 174.051 207.609 174.737 208.637 175.537C209.299 176.107 209.804 176.837 210.104 177.658C210.404 178.478 210.49 179.361 210.352 180.224C210.009 182.053 208.295 183.196 206.123 184.568C204.729 185.433 203.392 186.387 202.122 187.425C200.636 188.683 200.293 190.855 199.836 193.255C199.378 195.999 198.807 199.199 196.406 201.6C194.006 204.343 188.633 204.915 184.632 204.915ZM180.517 202.4C184.061 202.743 192.063 202.972 194.92 199.999C196.749 198.056 197.206 195.313 197.664 192.798C198.121 190.283 198.578 187.425 200.75 185.596C202.236 184.339 203.722 183.425 204.98 182.51C206.58 181.481 207.952 180.567 208.18 179.767C208.278 179.332 208.256 178.878 208.115 178.455C207.974 178.032 207.72 177.655 207.38 177.366C206.58 176.68 205.094 176.795 203.379 177.709C202.236 178.281 200.864 178.852 199.378 179.424C195.035 181.253 188.976 183.882 188.062 186.511C187.956 186.799 187.739 187.033 187.461 187.162C187.182 187.29 186.864 187.303 186.576 187.197C186.288 187.091 186.054 186.875 185.925 186.596C185.796 186.317 185.784 185.999 185.89 185.711C186.69 183.196 189.662 181.253 193.091 179.538C192.863 176.223 193.892 170.279 196.063 167.65C198.464 164.564 201.55 163.992 209.666 162.277C213.21 161.477 214.582 160.334 214.582 159.42C214.582 158.734 213.896 158.162 213.21 157.934C210.352 157.134 201.665 158.277 196.978 160.563C192.291 162.849 188.519 166.964 184.747 174.051C181.889 179.424 175.373 182.739 172.859 183.996L180.517 202.4Z" fill="black"/>
<path d="M13.0542 282.758C12.3684 282.643 11.7968 282.186 11.9111 281.5L15.3404 246.636C15.3554 246.486 15.3998 246.34 15.4711 246.207C15.5425 246.074 15.6393 245.957 15.756 245.861C15.8728 245.766 16.0072 245.694 16.1517 245.651C16.2961 245.607 16.4477 245.592 16.5978 245.607C16.7479 245.622 16.8936 245.667 17.0265 245.738C17.1595 245.809 17.2771 245.906 17.3726 246.023C17.4681 246.14 17.5397 246.274 17.5833 246.419C17.6269 246.563 17.6416 246.715 17.6266 246.865L14.1973 281.729C14.1553 282.006 14.0183 282.26 13.8099 282.448C13.6014 282.636 13.3344 282.745 13.0542 282.758V282.758Z" fill="black"/>
<path d="M81.8687 482.608C81.5655 482.608 81.2747 482.488 81.0604 482.273C80.846 482.059 80.7256 481.768 80.7256 481.465L77.2963 365.556C77.2862 365.403 77.3088 365.25 77.3627 365.106C77.4166 364.963 77.5004 364.833 77.6087 364.725C77.7169 364.617 77.847 364.533 77.9903 364.479C78.1335 364.425 78.2867 364.402 78.4394 364.412C78.7425 364.412 79.0333 364.533 79.2477 364.747C79.462 364.962 79.5825 365.252 79.5825 365.556L83.0118 481.465C83.0118 481.768 82.8913 482.059 82.6769 482.273C82.4626 482.488 82.1718 482.608 81.8687 482.608Z" fill="black"/>
<path d="M433.575 510.886H1.14309C0.839925 510.886 0.549174 510.766 0.334803 510.551C0.120432 510.337 0 510.046 0 509.743C0 509.44 0.120432 509.149 0.334803 508.935C0.549174 508.72 0.839925 508.6 1.14309 508.6H433.689C433.842 508.59 433.995 508.613 434.138 508.666C434.282 508.72 434.412 508.804 434.52 508.912C434.628 509.021 434.712 509.151 434.766 509.294C434.82 509.437 434.842 509.59 434.832 509.743C434.833 509.903 434.8 510.062 434.736 510.209C434.671 510.355 434.577 510.487 434.458 510.595C434.34 510.702 434.2 510.784 434.047 510.834C433.895 510.885 433.734 510.902 433.575 510.886Z" fill="black"/>
<path d="M222.686 248.934C233.065 168.232 259.562 113.844 259.562 113.844L293.249 113.992L345.099 114.29C345.099 114.29 384.25 197.552 383.622 310.056C383.37 353.287 378.66 385.557 372.819 409.002C362.76 449.787 349.249 464.476 349.249 464.476L266.386 463.996H260.316L250.966 463.904C250.966 463.904 237.683 449.056 228.184 408.304C226.709 402.109 225.303 395.193 224.046 387.649L222.686 248.934Z" fill="white"/>
<path d="M302.6 56.2461L259.562 113.846L302.246 114.064L344.997 114.372L302.6 56.2461Z" fill="#DEDEDE"/>
<path d="M342.162 507.001L257.561 506.464L250.966 463.918L349.249 464.478L342.162 507.001Z" fill="#DEDEDE"/>
<path d="M228.184 408.305L185.364 442.792L185.124 475.358L250.966 463.928C250.966 463.928 237.683 449.056 228.184 408.305Z" fill="#DEDEDE"/>
<path d="M372.797 409.176C362.76 449.79 349.249 464.479 349.249 464.479L414.92 476.641L415.148 444.074L372.797 409.176Z" fill="#DEDEDE"/>
<path d="M350.083 465.461C349.832 465.656 349.521 465.757 349.204 465.746C348.887 465.736 348.583 465.615 348.346 465.404C348.214 465.289 348.109 465.148 348.037 464.989C347.965 464.83 347.928 464.658 347.928 464.484C347.928 464.309 347.965 464.137 348.037 463.978C348.109 463.82 348.214 463.678 348.346 463.563C348.54 463.403 361.708 448.497 371.585 408.695C378.443 380.838 382.055 347.642 382.272 310.023C382.935 199.143 344.265 115.698 343.876 114.806C343.77 114.509 343.778 114.183 343.899 113.891C344.02 113.6 344.245 113.364 344.531 113.23C344.816 113.096 345.142 113.073 345.443 113.165C345.745 113.258 346.001 113.46 346.162 113.731C346.539 114.589 385.45 198.56 384.822 310.069C384.582 347.871 380.969 381.249 373.974 409.369C363.937 449.972 350.689 464.775 350.174 465.381L350.083 465.461Z" fill="black"/>
<path d="M251.789 464.901C251.66 465.011 251.51 465.094 251.348 465.146C251.187 465.197 251.016 465.216 250.847 465.201C250.678 465.187 250.513 465.138 250.363 465.059C250.213 464.98 250.08 464.872 249.972 464.741C249.48 464.146 236.392 449.126 226.87 408.524C225.35 401.871 223.944 394.944 222.835 387.777C222.799 387.443 222.89 387.108 223.09 386.839C223.289 386.569 223.583 386.384 223.912 386.321C224.242 386.258 224.583 386.32 224.868 386.497C225.153 386.673 225.362 386.951 225.452 387.274C226.664 394.361 227.967 401.368 229.499 407.849C238.804 447.789 251.892 462.809 252.052 463.015C252.239 463.311 252.315 463.664 252.267 464.012C252.219 464.359 252.05 464.678 251.789 464.912V464.901Z" fill="black"/>
<path d="M223.509 249.932C223.383 250.046 223.234 250.131 223.072 250.18C222.91 250.23 222.739 250.242 222.571 250.218C222.395 250.213 222.223 250.168 222.068 250.085C221.912 250.003 221.778 249.886 221.675 249.743C221.572 249.601 221.503 249.436 221.475 249.263C221.446 249.089 221.457 248.911 221.508 248.743C231.796 168.726 258.19 113.858 258.522 113.206C258.673 112.903 258.939 112.673 259.26 112.566C259.582 112.458 259.933 112.483 260.236 112.635C260.539 112.787 260.77 113.052 260.877 113.374C260.984 113.695 260.959 114.046 260.808 114.35C260.579 114.887 234.322 169.572 224.137 249.097C223.972 249.406 223.76 249.687 223.509 249.932V249.932Z" fill="black"/>
<path d="M343.465 268.117C343.252 268.275 342.993 268.361 342.728 268.361C342.462 268.361 342.203 268.275 341.99 268.117C341.694 267.94 341.478 267.655 341.389 267.322C341.299 266.989 341.343 266.635 341.51 266.333C345.517 259.335 347.619 251.408 347.609 243.344C347.599 235.28 345.476 227.359 341.452 220.37C337.429 213.382 331.644 207.569 324.675 203.512C317.705 199.454 309.795 197.294 301.731 197.245C297.657 197.175 293.593 197.679 289.66 198.742C289.335 198.835 288.987 198.795 288.693 198.631C288.398 198.467 288.18 198.192 288.088 197.868C287.995 197.544 288.035 197.196 288.199 196.901C288.363 196.606 288.638 196.389 288.962 196.296C293.143 195.19 297.452 194.644 301.776 194.673C308.164 194.683 314.487 195.965 320.374 198.443C326.262 200.922 331.597 204.548 336.069 209.11C340.584 213.664 344.158 219.062 346.587 224.997C349.015 230.932 350.25 237.288 350.221 243.7C350.232 252.131 348.007 260.414 343.774 267.705C343.707 267.866 343.601 268.007 343.465 268.117Z" fill="black"/>
<path d="M332.674 281.023C327.561 285.305 321.621 288.489 315.224 290.376C308.827 292.264 302.11 292.815 295.491 291.994C288.872 291.174 282.493 289 276.75 285.608C271.008 282.216 266.025 277.679 262.111 272.278C262 272.138 261.92 271.976 261.874 271.803C261.829 271.63 261.819 271.45 261.846 271.273C261.873 271.096 261.937 270.927 262.032 270.776C262.127 270.625 262.253 270.495 262.401 270.394C262.549 270.293 262.716 270.224 262.891 270.191C263.067 270.157 263.248 270.161 263.422 270.2C263.596 270.24 263.761 270.315 263.905 270.42C264.049 270.526 264.17 270.661 264.26 270.815C268.524 276.633 274.085 281.378 280.502 284.674C286.918 287.97 294.015 289.725 301.228 289.802C307.381 289.859 313.483 288.674 319.167 286.317C324.851 283.96 330.002 280.48 334.309 276.085C334.429 275.964 334.571 275.869 334.728 275.804C334.885 275.739 335.053 275.705 335.223 275.705C335.393 275.705 335.561 275.739 335.718 275.804C335.875 275.869 336.018 275.964 336.138 276.085C336.361 276.339 336.484 276.666 336.484 277.005C336.484 277.344 336.361 277.671 336.138 277.925C334.972 278.931 333.863 280.028 332.674 281.023Z" fill="black"/>
<path d="M303.434 57.239C303.218 57.4188 302.949 57.5231 302.668 57.5362C302.498 57.5379 302.33 57.5051 302.174 57.4396C302.018 57.3741 301.876 57.2774 301.759 57.1555C301.641 57.0335 301.549 56.8887 301.489 56.7301C301.43 56.5715 301.403 56.4024 301.41 56.2331L301.708 1.17032C301.738 0.850177 301.886 0.552816 302.124 0.336382C302.362 0.119947 302.672 0 302.994 0C303.315 0 303.625 0.119947 303.863 0.336382C304.101 0.552816 304.249 0.850177 304.28 1.17032L303.971 56.2331C303.956 56.4288 303.901 56.6193 303.808 56.7924C303.716 56.9656 303.588 57.1177 303.434 57.239V57.239Z" fill="black"/>
<path d="M299.078 286.737C323.384 286.737 343.087 267.033 343.087 242.728C343.087 218.422 323.384 198.719 299.078 198.719C274.773 198.719 255.069 218.422 255.069 242.728C255.069 267.033 274.773 286.737 299.078 286.737Z" fill="#243244"/>
</svg>
