<svg width="60" height="60" viewBox="0 0 60 60" fill="none" xmlns="http://www.w3.org/2000/svg">
<path d="M44.0625 21.416C43.0075 21.8744 41.8912 22.1764 40.749 22.3125C41.9494 21.6096 42.8521 20.4929 43.2879 19.1719C42.153 19.8355 40.9134 20.3011 39.6223 20.5488C39.0786 19.979 38.4247 19.5257 37.7004 19.2165C36.976 18.9073 36.1964 18.7486 35.4088 18.75C32.2201 18.75 29.6396 21.293 29.6396 24.4277C29.6374 24.8638 29.6874 25.2985 29.7885 25.7227C27.502 25.6155 25.263 25.0322 23.2148 24.0101C21.1667 22.9881 19.3544 21.5497 17.8939 19.7871C17.3816 20.6509 17.1106 21.6364 17.1094 22.6406C17.1094 24.6094 18.1365 26.3496 19.6875 27.3692C18.7686 27.3473 17.8685 27.1041 17.0637 26.6602V26.7305C17.0637 29.4844 19.0559 31.7754 21.6926 32.2969C21.1967 32.4291 20.6858 32.496 20.1727 32.4961C19.8085 32.4967 19.4453 32.4614 19.0881 32.3906C19.8211 34.6465 21.9545 36.2871 24.4816 36.334C22.4282 37.9166 19.907 38.7719 17.3145 38.7656C16.8543 38.765 16.3945 38.7376 15.9375 38.6836C18.5749 40.3677 21.6407 41.2585 24.7699 41.25C35.3965 41.25 41.202 32.5957 41.202 25.0899C41.202 24.8438 41.1955 24.5977 41.1838 24.3574C42.3106 23.5559 43.2854 22.5598 44.0625 21.416V21.416Z" fill="#414752"/>
<circle cx="30" cy="30" r="29" stroke="#414752" stroke-width="2"/>
</svg>
